<svg width="10" height="15" viewBox="0 0 10 15" fill="none" xmlns="http://www.w3.org/2000/svg">
<path d="M1.14006 2.90992L1.13995 2.91002L1.14619 2.91626L5.72941 7.49949L1.14619 12.0827L1.14608 12.0826L1.14006 12.0891C0.864061 12.3853 0.713804 12.777 0.720947 13.1818C0.728089 13.5866 0.892072 13.9728 1.17835 14.2591C1.46463 14.5454 1.85084 14.7094 2.25564 14.7165C2.66043 14.7236 3.0522 14.5734 3.34839 14.2974L3.3485 14.2975L3.35474 14.2913L9.04224 8.60376L9.04235 8.60365C9.33496 8.31068 9.49931 7.91355 9.49931 7.49949C9.49931 7.08542 9.33496 6.68829 9.04235 6.39532L9.04224 6.39521L3.35474 0.707711L3.35485 0.7076L3.34839 0.701585C3.0522 0.425584 2.66043 0.275328 2.25564 0.28247C1.85084 0.289612 1.46463 0.453595 1.17835 0.739872C0.892072 1.02615 0.728089 1.41237 0.720947 1.81716C0.713804 2.22196 0.864061 2.61372 1.14006 2.90992Z" fill="white" stroke="white" stroke-width="0.5"/>
</svg>
