<svg width="862" height="845" viewBox="0 0 862 845" fill="none" xmlns="http://www.w3.org/2000/svg">
<path d="M431.001 831.279C661.856 831.279 849 648.088 849 422.109C849 196.131 661.856 12.9395 431.001 12.9395C200.147 12.9395 13.0022 196.131 13.0022 422.109C13.0022 648.088 200.147 831.279 431.001 831.279Z" fill="white" stroke="white" stroke-width="25.4977" stroke-miterlimit="10"/>
<path d="M171.67 164.115L164.96 173.401C161.854 172.075 158.779 171.388 155.736 171.341C152.71 171.269 149.798 171.724 146.998 172.707C144.191 173.647 141.585 175.045 139.181 176.901C136.776 178.757 134.654 180.958 132.814 183.504C129.459 188.148 127.609 193.178 127.266 198.596C126.94 203.988 128.292 209.4 131.32 214.83C134.367 220.236 139.258 225.27 145.994 229.934C152.729 234.597 159.208 237.435 165.429 238.447C171.669 239.433 177.331 238.878 182.418 236.782C187.522 234.66 191.751 231.278 195.107 226.634C196.946 224.088 198.36 221.396 199.346 218.558C200.333 215.721 200.824 212.859 200.821 209.972C200.81 207.043 200.266 204.195 199.189 201.426C198.104 198.616 196.418 196.007 194.131 193.599L200.842 184.312C204.312 187.764 206.95 191.5 208.755 195.522C210.56 199.543 211.572 203.69 211.791 207.961C211.984 212.215 211.415 216.446 210.083 220.655C208.77 224.839 206.715 228.866 203.919 232.736C199.193 239.276 193.369 243.971 186.448 246.819C179.527 249.668 172.023 250.484 163.936 249.267C155.85 248.05 147.704 244.601 139.5 238.921C131.295 233.24 125.26 226.871 121.395 219.812C117.529 212.754 115.816 205.556 116.254 198.219C116.693 190.882 119.275 183.944 124.002 177.403C126.798 173.533 129.992 170.296 133.585 167.689C137.196 165.058 141.095 163.132 145.282 161.912C149.444 160.673 153.762 160.218 158.237 160.544C162.687 160.853 167.164 162.044 171.67 164.115Z" fill="#1D1D1B"/>
<path d="M171.67 164.115L172.862 164.94L173.875 163.538L172.298 162.814L171.67 164.115ZM164.96 173.401L164.368 174.718L165.459 175.184L166.152 174.227L164.96 173.401ZM155.736 171.341L155.69 172.776L155.703 172.776L155.736 171.341ZM146.998 172.707L147.463 174.065L147.473 174.062L147.483 174.058L146.998 172.707ZM139.181 176.901L140.08 178.027L140.08 178.027L139.181 176.901ZM127.266 198.596L125.805 198.516L125.805 198.52L127.266 198.596ZM131.32 214.83L130.036 215.526L130.039 215.531L131.32 214.83ZM165.429 238.447L165.181 239.863L165.187 239.864L165.429 238.447ZM182.418 236.782L182.977 238.105L182.981 238.103L182.418 236.782ZM199.346 218.558L197.962 218.103L197.962 218.103L199.346 218.558ZM200.821 209.972L202.284 209.961L202.284 209.957L200.821 209.972ZM199.189 201.426L197.82 201.943L197.821 201.946L199.189 201.426ZM194.131 193.599L192.939 192.774L192.249 193.73L193.058 194.582L194.131 193.599ZM200.842 184.312L201.887 183.3L200.664 182.084L199.65 183.487L200.842 184.312ZM208.755 195.522L207.415 196.108L207.415 196.108L208.755 195.522ZM211.791 207.961L213.253 207.887L213.252 207.879L211.791 207.961ZM210.083 220.655L208.686 220.238L208.685 220.241L210.083 220.655ZM186.448 246.819L187.006 248.143L187.006 248.143L186.448 246.819ZM163.936 249.267L164.167 247.848L164.167 247.848L163.936 249.267ZM133.585 167.689L134.449 168.842L134.452 168.84L133.585 167.689ZM145.282 161.912L145.69 163.288L145.698 163.285L145.282 161.912ZM158.237 160.544L158.119 161.976L158.124 161.976L158.237 160.544ZM170.479 163.29L163.768 172.576L166.152 174.227L172.862 164.94L170.479 163.29ZM165.551 172.084C162.289 170.691 159.025 169.956 155.768 169.905L155.703 172.776C158.532 172.82 161.418 173.458 164.368 174.718L165.551 172.084ZM155.781 169.905C152.579 169.829 149.487 170.312 146.513 171.356L147.483 174.058C150.109 173.136 152.842 172.708 155.69 172.776L155.781 169.905ZM146.534 171.349C143.565 172.343 140.812 173.821 138.281 175.775L140.08 178.027C142.358 176.269 144.818 174.951 147.463 174.065L146.534 171.349ZM138.281 175.775C135.76 177.72 133.541 180.024 131.622 182.679L134.005 184.329C135.767 181.892 137.792 179.794 140.08 178.027L138.281 175.775ZM131.622 182.679C128.116 187.531 126.167 192.818 125.805 198.516L128.726 198.675C129.052 193.538 130.801 188.764 134.005 184.329L131.622 182.679ZM125.805 198.52C125.461 204.22 126.896 209.896 130.036 215.526L132.605 214.135C129.687 208.904 128.419 203.757 128.726 198.671L125.805 198.52ZM130.039 215.531C133.219 221.174 138.283 226.358 145.145 231.109L146.843 228.759C140.232 224.182 135.515 219.297 132.602 214.129L130.039 215.531ZM145.145 231.109C152.006 235.859 158.687 238.807 165.181 239.863L165.678 237.03C159.729 236.063 153.453 233.335 146.843 228.759L145.145 231.109ZM165.187 239.864C171.655 240.887 177.601 240.321 182.977 238.105L181.859 235.459C177.062 237.436 171.682 237.98 165.672 237.029L165.187 239.864ZM182.981 238.103C188.349 235.872 192.792 232.312 196.298 227.459L193.915 225.809C190.711 230.244 186.694 233.449 181.854 235.46L182.981 238.103ZM196.298 227.459C198.217 224.804 199.697 221.988 200.731 219.014L197.962 218.103C197.023 220.804 195.676 223.372 193.915 225.809L196.298 227.459ZM200.731 219.014C201.768 216.031 202.288 213.012 202.284 209.961L199.357 209.984C199.361 212.706 198.898 215.41 197.962 218.103L200.731 219.014ZM202.284 209.957C202.272 206.853 201.695 203.834 200.556 200.907L197.821 201.946C198.836 204.556 199.347 207.233 199.357 209.987L202.284 209.957ZM200.557 200.91C199.4 197.911 197.608 195.146 195.205 192.616L193.058 194.582C195.229 196.867 196.808 199.321 197.82 201.943L200.557 200.91ZM195.323 194.424L202.033 185.137L199.65 183.487L192.939 192.774L195.323 194.424ZM199.797 185.324C203.156 188.665 205.688 192.26 207.415 196.108L210.095 194.936C208.211 190.74 205.468 186.862 201.887 183.3L199.797 185.324ZM207.415 196.108C209.151 199.975 210.12 203.951 210.329 208.043L213.252 207.879C213.024 203.428 211.969 199.112 210.095 194.936L207.415 196.108ZM210.329 208.035C210.515 212.117 209.969 216.183 208.686 220.238L211.48 221.073C212.861 216.71 213.454 212.312 213.253 207.887L210.329 208.035ZM208.685 220.241C207.421 224.267 205.44 228.156 202.727 231.911L205.11 233.561C207.99 229.576 210.118 225.412 211.481 221.07L208.685 220.241ZM202.727 231.911C198.146 238.25 192.534 242.761 185.889 245.496L187.006 248.143C194.204 245.18 200.239 240.302 205.11 233.561L202.727 231.911ZM185.889 245.496C179.241 248.232 172.013 249.028 164.167 247.848L163.705 250.686C172.032 251.939 179.812 251.104 187.006 248.143L185.889 245.496ZM164.167 247.848C156.349 246.671 148.411 243.328 140.349 237.746L138.651 240.096C146.997 245.875 155.35 249.429 163.705 250.686L164.167 247.848ZM140.349 237.746C132.286 232.164 126.422 225.951 122.685 219.126L120.105 220.498C124.098 227.791 130.304 234.317 138.651 240.096L140.349 237.746ZM122.685 219.126C118.934 212.278 117.294 205.341 117.715 198.294L114.794 198.145C114.338 205.771 116.124 213.23 120.105 220.498L122.685 219.126ZM117.715 198.294C118.136 191.25 120.612 184.568 125.193 178.228L122.81 176.578C117.939 183.319 115.25 190.515 114.794 198.145L117.715 198.294ZM125.193 178.228C127.906 174.474 130.993 171.35 134.449 168.842L132.72 166.537C128.991 169.242 125.689 172.593 122.81 176.578L125.193 178.228ZM134.452 168.84C137.928 166.307 141.673 164.459 145.69 163.288L144.874 160.536C140.517 161.806 136.463 163.81 132.717 166.539L134.452 168.84ZM145.698 163.285C149.681 162.1 153.818 161.662 158.119 161.976L158.355 159.113C153.707 158.773 149.207 159.246 144.866 160.538L145.698 163.285ZM158.124 161.976C162.375 162.272 166.679 163.41 171.042 165.416L172.298 162.814C167.649 160.677 162.998 159.435 158.35 159.112L158.124 161.976Z" fill="#1D1D1B"/>
<path d="M235.35 202.743L175.93 129.645L201.041 110.085C206.847 105.563 212.406 102.826 217.718 101.876C223.01 100.901 227.925 101.406 232.461 103.391C236.998 105.375 241.017 108.521 244.518 112.828C248.019 117.134 250.229 121.651 251.146 126.376C252.064 131.102 251.446 135.858 249.292 140.645C247.119 145.408 243.153 150.032 237.396 154.516L217.074 170.345L210.575 162.35L230.606 146.747C234.574 143.657 237.303 140.599 238.793 137.572C240.308 134.527 240.759 131.533 240.146 128.591C239.537 125.607 238.043 122.651 235.664 119.724C233.285 116.798 230.649 114.673 227.757 113.351C224.864 112.028 221.713 111.724 218.302 112.437C214.872 113.127 211.15 115.036 207.134 118.164L191.312 130.488L244.35 195.733L235.35 202.743ZM243.639 142.658L288.621 161.249L278.17 169.39L233.478 150.573L243.639 142.658Z" fill="#1D1D1B"/>
<path d="M235.35 202.743L234.212 203.63L235.122 204.75L236.26 203.863L235.35 202.743ZM175.93 129.645L175.019 128.525L173.881 129.412L174.791 130.532L175.93 129.645ZM217.718 101.876L217.986 103.281L217.993 103.28L217.718 101.876ZM232.461 103.391L231.872 104.695L231.872 104.695L232.461 103.391ZM251.146 126.376L249.714 126.637L249.714 126.637L251.146 126.376ZM249.292 140.645L250.623 141.233L250.626 141.226L249.292 140.645ZM217.074 170.345L215.936 171.232L216.846 172.352L217.985 171.465L217.074 170.345ZM210.575 162.35L209.665 161.23L208.526 162.117L209.437 163.237L210.575 162.35ZM238.793 137.572L237.483 136.941L237.48 136.946L238.793 137.572ZM240.146 128.591L238.716 128.865L238.717 128.871L240.146 128.591ZM218.302 112.437L218.602 113.837L218.613 113.834L218.302 112.437ZM191.312 130.488L190.402 129.368L189.263 130.255L190.174 131.374L191.312 130.488ZM244.35 195.733L245.26 196.853L246.398 195.966L245.488 194.846L244.35 195.733ZM243.639 142.658L244.2 141.342L243.403 141.013L242.729 141.538L243.639 142.658ZM288.621 161.249L289.531 162.369L291.453 160.872L289.182 159.934L288.621 161.249ZM278.17 169.39L277.6 170.702L278.401 171.039L279.08 170.51L278.17 169.39ZM233.478 150.573L232.568 149.453L230.661 150.938L232.908 151.885L233.478 150.573ZM236.489 201.856L177.068 128.758L174.791 130.532L234.212 203.63L236.489 201.856ZM176.84 130.765L201.951 111.205L200.131 108.966L175.019 128.525L176.84 130.765ZM201.951 111.205C207.637 106.776 212.981 104.177 217.986 103.281L217.449 100.47C211.831 101.476 206.057 104.35 200.131 108.966L201.951 111.205ZM217.993 103.28C223.021 102.354 227.631 102.839 231.872 104.695L233.05 102.087C228.218 99.9731 222.999 99.4485 217.442 100.472L217.993 103.28ZM231.872 104.695C236.168 106.574 240.006 109.564 243.38 113.714L245.657 111.941C242.029 107.477 237.828 104.177 233.05 102.087L231.872 104.695ZM243.38 113.714C246.754 117.865 248.847 122.171 249.714 126.637L252.578 126.116C251.61 121.13 249.285 116.404 245.657 111.941L243.38 113.714ZM249.714 126.637C250.572 131.053 250.004 135.516 247.958 140.064L250.626 141.226C252.888 136.201 253.556 131.152 252.578 126.116L249.714 126.637ZM247.961 140.057C245.912 144.548 242.127 149.002 236.485 153.397L238.306 155.636C244.18 151.061 248.326 146.268 250.623 141.233L247.961 140.057ZM236.485 153.397L216.164 169.225L217.985 171.465L238.306 155.636L236.485 153.397ZM218.213 169.458L211.714 161.463L209.437 163.237L215.936 171.232L218.213 169.458ZM211.485 163.47L231.516 147.867L229.696 145.628L209.665 161.23L211.485 163.47ZM231.516 147.867C235.58 144.702 238.487 141.486 240.107 138.198L237.48 136.946C236.118 139.711 233.568 142.612 229.696 145.628L231.516 147.867ZM240.104 138.203C241.74 134.914 242.26 131.602 241.574 128.312L238.717 128.871C239.258 131.465 238.877 134.139 237.483 136.941L240.104 138.203ZM241.575 128.318C240.911 125.064 239.294 121.903 236.802 118.838L234.525 120.611C236.792 123.399 238.162 126.15 238.716 128.865L241.575 128.318ZM236.802 118.838C234.309 115.771 231.502 113.49 228.368 112.057L227.145 114.645C229.796 115.856 232.26 117.825 234.525 120.611L236.802 118.838ZM228.368 112.057C225.16 110.59 221.681 110.269 217.992 111.04L218.613 113.834C221.745 113.179 224.569 113.467 227.145 114.645L228.368 112.057ZM218.003 111.038C214.27 111.789 210.341 113.837 206.223 117.044L208.044 119.284C211.959 116.235 215.475 114.465 218.602 113.837L218.003 111.038ZM206.223 117.044L190.402 129.368L192.222 131.607L208.044 119.284L206.223 117.044ZM190.174 131.374L243.211 196.62L245.488 194.846L192.451 129.601L190.174 131.374ZM243.439 194.613L234.44 201.623L236.26 203.863L245.26 196.853L243.439 194.613ZM243.078 143.974L288.06 162.565L289.182 159.934L244.2 141.342L243.078 143.974ZM287.711 160.13L277.26 168.27L279.08 170.51L289.531 162.369L287.711 160.13ZM278.74 168.078L234.049 149.26L232.908 151.885L277.6 170.702L278.74 168.078ZM234.389 151.692L244.549 143.778L242.729 141.538L232.568 149.453L234.389 151.692Z" fill="#1D1D1B"/>
<path d="M260.605 75.4535L272.698 70.5138L314.129 101.086L315.15 100.668L322.093 50.3374L334.186 45.3977L324.393 109.214L339.617 144.926L329.056 149.239L313.833 113.527L260.605 75.4535Z" fill="#1D1D1B"/>
<path d="M260.605 75.4535L260.039 74.1259L257.65 75.1019L259.763 76.6136L260.605 75.4535ZM272.698 70.5138L273.558 69.3665L272.892 68.8757L272.132 69.1862L272.698 70.5138ZM314.129 101.086L313.269 102.233L313.934 102.724L314.694 102.413L314.129 101.086ZM315.15 100.668L315.716 101.996L316.477 101.685L316.588 100.877L315.15 100.668ZM322.093 50.3374L321.527 49.0098L320.767 49.3204L320.655 50.1285L322.093 50.3374ZM334.186 45.3977L335.621 45.6279L336.01 43.0941L333.62 44.0701L334.186 45.3977ZM324.393 109.214L322.958 108.984L322.897 109.384L323.057 109.759L324.393 109.214ZM339.617 144.926L340.183 146.254L341.519 145.708L340.953 144.38L339.617 144.926ZM329.056 149.239L327.72 149.785L328.286 151.113L329.622 150.567L329.056 149.239ZM313.833 113.527L315.169 112.982L315.009 112.606L314.675 112.367L313.833 113.527ZM261.171 76.7811L273.264 71.8414L272.132 69.1862L260.039 74.1259L261.171 76.7811ZM271.839 71.6611L313.269 102.233L314.988 99.9383L273.558 69.3665L271.839 71.6611ZM314.694 102.413L315.716 101.996L314.585 99.3406L313.563 99.758L314.694 102.413ZM316.588 100.877L323.531 50.5464L320.655 50.1285L313.713 100.459L316.588 100.877ZM322.659 51.665L334.752 46.7253L333.62 44.0701L321.527 49.0098L322.659 51.665ZM332.752 45.1675L322.958 108.984L325.828 109.444L335.621 45.6279L332.752 45.1675ZM323.057 109.759L338.281 145.472L340.953 144.38L325.729 108.668L323.057 109.759ZM339.051 143.598L328.49 147.912L329.622 150.567L340.183 146.254L339.051 143.598ZM330.392 148.694L315.169 112.982L312.497 114.073L327.72 149.785L330.392 148.694ZM314.675 112.367L261.447 74.2934L259.763 76.6136L312.991 114.687L314.675 112.367Z" fill="#1D1D1B"/>
<path d="M382.756 135.024L371.212 41.7933L402.733 38.0532C410.051 37.1849 416.197 37.7952 421.17 39.8843C426.17 41.9394 430.07 45.0642 432.87 49.2588C435.669 53.4534 437.409 58.2973 438.089 63.7904C438.769 69.2835 438.264 74.4091 436.573 79.1674C434.912 83.922 431.924 87.9103 427.609 91.1322C423.29 94.3239 417.501 96.3502 410.243 97.2114L387.65 99.8921L386.41 89.8771L408.639 87.2396C413.649 86.6451 417.566 85.3027 420.388 83.2125C423.211 81.1223 425.123 78.5243 426.125 75.4183C427.154 72.2784 427.437 68.842 426.975 65.1091C426.513 61.3763 425.401 58.1208 423.639 55.3427C421.908 52.5611 419.406 50.5176 416.132 49.2123C412.854 47.8767 408.68 47.5098 403.609 48.1115L383.748 50.468L394.053 133.684L382.756 135.024Z" fill="#1D1D1B"/>
<path d="M382.756 135.024L381.327 135.194L381.504 136.622L382.933 136.452L382.756 135.024ZM371.212 41.7933L371.035 40.365L369.606 40.5346L369.782 41.9629L371.212 41.7933ZM421.17 39.8843L420.618 41.2097L420.628 41.214L421.17 39.8843ZM432.87 49.2588L431.673 50.0525L431.673 50.0525L432.87 49.2588ZM436.573 79.1674L435.216 78.6803L435.213 78.6876L436.573 79.1674ZM427.609 91.1322L428.469 92.29L428.475 92.2858L427.609 91.1322ZM387.65 99.8921L386.221 100.062L386.398 101.49L387.827 101.32L387.65 99.8921ZM386.41 89.8771L386.233 88.4488L384.804 88.6184L384.981 90.0467L386.41 89.8771ZM420.388 83.2125L419.527 82.0556L419.527 82.0556L420.388 83.2125ZM426.125 75.4183L424.756 74.9649L424.754 74.9711L426.125 75.4183ZM423.639 55.3427L422.417 56.0976L422.424 56.1079L423.639 55.3427ZM416.132 49.2123L415.594 50.5437L415.604 50.5478L416.132 49.2123ZM383.748 50.468L383.572 49.0397L382.142 49.2093L382.319 50.6375L383.748 50.468ZM394.053 133.684L394.23 135.112L395.659 134.943L395.482 133.514L394.053 133.684ZM384.185 134.855L372.641 41.6237L369.782 41.9629L381.327 135.194L384.185 134.855ZM371.388 43.2216L402.91 39.4815L402.556 36.625L371.035 40.365L371.388 43.2216ZM402.91 39.4815C410.068 38.6322 415.945 39.2467 420.618 41.2097L421.723 38.5589C416.45 36.3437 410.035 35.7376 402.556 36.625L402.91 39.4815ZM420.628 41.214C425.381 43.1677 429.045 46.1151 431.673 50.0525L434.067 48.4651C431.095 44.0134 426.959 40.711 421.713 38.5546L420.628 41.214ZM431.673 50.0525C434.335 54.0417 436.005 58.6673 436.66 63.96L439.518 63.6208C438.813 57.9273 437.003 52.8652 434.067 48.4651L431.673 50.0525ZM436.66 63.96C437.315 69.2525 436.825 74.1513 435.216 78.6803L437.93 79.6545C439.703 74.667 440.223 69.3145 439.518 63.6208L436.66 63.96ZM435.213 78.6876C433.653 83.1544 430.847 86.9147 426.743 89.9787L428.475 92.2858C433.002 88.9059 436.172 84.6896 437.933 79.6471L435.213 78.6876ZM426.749 89.9745C422.689 92.9746 417.162 94.9412 410.066 95.7831L410.42 98.6397C417.841 97.7592 423.891 95.6732 428.469 92.29L426.749 89.9745ZM410.066 95.7831L387.473 98.4638L387.827 101.32L410.42 98.6397L410.066 95.7831ZM389.079 99.7226L387.839 89.7075L384.981 90.0467L386.221 100.062L389.079 99.7226ZM386.587 91.3054L408.816 88.6679L408.462 85.8113L386.233 88.4488L386.587 91.3054ZM408.816 88.6679C413.973 88.0559 418.158 86.6587 421.25 84.3694L419.527 82.0556C416.973 83.9468 413.325 85.2342 408.462 85.8113L408.816 88.6679ZM421.25 84.3694C424.293 82.116 426.395 79.2776 427.496 75.8656L424.754 74.9711C423.851 77.7709 422.129 80.1287 419.527 82.0556L421.25 84.3694ZM427.494 75.8717C428.597 72.5057 428.889 68.8536 428.404 64.9396L425.546 65.2787C425.985 68.8304 425.711 72.0512 424.756 74.9649L427.494 75.8717ZM428.404 64.9396C427.919 61.0259 426.746 57.5607 424.855 54.5775L422.424 56.1079C424.055 58.6809 425.106 61.7267 425.546 65.2787L428.404 64.9396ZM424.861 54.5878C422.954 51.5234 420.198 49.2875 416.66 47.8769L415.604 50.5478C418.613 51.7477 420.862 53.5987 422.417 56.0976L424.861 54.5878ZM416.67 47.881C413.087 46.4209 408.644 46.0647 403.432 46.6832L403.786 49.5398C408.716 48.9548 412.622 49.3325 415.594 50.5437L416.67 47.881ZM403.432 46.6832L383.572 49.0397L383.925 51.8963L403.786 49.5398L403.432 46.6832ZM382.319 50.6375L392.624 133.853L395.482 133.514L385.178 50.2984L382.319 50.6375ZM393.876 132.256L382.579 133.596L382.933 136.452L394.23 135.112L393.876 132.256Z" fill="#1D1D1B"/>
<path d="M471.818 49.8228L473.264 39.8089L543.238 49.4952L541.792 59.5091L512.454 55.4479L500.433 138.654L489.135 137.091L501.156 53.884L471.818 49.8228Z" fill="#1D1D1B"/>
<path d="M471.818 49.8228L470.388 49.6249L470.182 51.0531L471.611 51.2509L471.818 49.8228ZM473.264 39.8089L473.471 38.3807L472.041 38.1829L471.835 39.611L473.264 39.8089ZM543.238 49.4952L544.668 49.693L544.874 48.2649L543.445 48.067L543.238 49.4952ZM541.792 59.5091L541.585 60.9372L543.015 61.1351L543.221 59.7069L541.792 59.5091ZM512.454 55.4479L512.66 54.0198L511.231 53.8219L511.024 55.25L512.454 55.4479ZM500.433 138.654L500.227 140.083L501.656 140.28L501.862 138.852L500.433 138.654ZM489.135 137.091L487.706 136.893L487.5 138.321L488.929 138.519L489.135 137.091ZM501.156 53.884L502.585 54.0818L502.791 52.6537L501.362 52.4558L501.156 53.884ZM473.247 50.0206L474.694 40.0067L471.835 39.611L470.388 49.6249L473.247 50.0206ZM473.058 41.237L543.032 50.9233L543.445 48.067L473.471 38.3807L473.058 41.237ZM541.809 49.2973L540.362 59.3112L543.221 59.7069L544.668 49.693L541.809 49.2973ZM541.998 58.081L512.66 54.0198L512.247 56.876L541.585 60.9372L541.998 58.081ZM511.024 55.25L499.004 138.457L501.862 138.852L513.883 55.6458L511.024 55.25ZM500.639 137.226L489.342 135.662L488.929 138.519L500.227 140.083L500.639 137.226ZM490.565 137.288L502.585 54.0818L499.726 53.6861L487.706 136.893L490.565 137.288ZM501.362 52.4558L472.024 48.3947L471.611 51.2509L500.949 55.3121L501.362 52.4558Z" fill="#1D1D1B"/>
<path d="M537.679 150.83L526.623 146.27L595.847 72.934L606.733 77.4242L601.461 177.14L590.406 172.579L595.737 89.0081L595.057 88.7275L537.679 150.83ZM556.311 118.715L600.873 137.097L596.872 146.391L552.309 128.01L556.311 118.715Z" fill="#1D1D1B"/>
<path d="M537.679 150.83L537.108 152.156L538.05 152.544L538.745 151.792L537.679 150.83ZM526.623 146.27L525.567 145.296L524.141 146.807L526.052 147.595L526.623 146.27ZM595.847 72.934L596.418 71.6085L595.486 71.2243L594.791 71.9606L595.847 72.934ZM606.733 77.4242L608.182 77.4839L608.235 76.4828L607.303 76.0987L606.733 77.4242ZM601.461 177.14L600.891 178.465L602.802 179.254L602.91 177.199L601.461 177.14ZM590.406 172.579L588.957 172.504L588.893 173.516L589.835 173.905L590.406 172.579ZM595.737 89.0081L597.185 89.0832L597.25 88.0711L596.308 87.6825L595.737 89.0081ZM595.057 88.7275L595.628 87.4019L594.685 87.0133L593.991 87.7654L595.057 88.7275ZM556.311 118.715L556.881 117.389L555.547 116.839L554.976 118.165L556.311 118.715ZM600.873 137.097L602.208 137.647L602.778 136.321L601.444 135.771L600.873 137.097ZM596.872 146.391L596.302 147.717L597.636 148.267L598.206 146.942L596.872 146.391ZM552.309 128.01L550.975 127.459L550.405 128.785L551.739 129.335L552.309 128.01ZM538.249 149.505L527.194 144.944L526.052 147.595L537.108 152.156L538.249 149.505ZM527.679 147.243L596.903 73.9075L594.791 71.9606L525.567 145.296L527.679 147.243ZM595.276 74.2596L606.162 78.7498L607.303 76.0987L596.418 71.6085L595.276 74.2596ZM605.284 77.3645L600.012 177.08L602.91 177.199L608.182 77.4839L605.284 77.3645ZM602.032 175.814L590.976 171.254L589.835 173.905L600.891 178.465L602.032 175.814ZM591.854 172.655L597.185 89.0832L594.289 88.9329L588.957 172.504L591.854 172.655ZM596.308 87.6825L595.628 87.4019L594.486 90.053L595.167 90.3336L596.308 87.6825ZM593.991 87.7654L536.612 149.868L538.745 151.792L596.123 89.6895L593.991 87.7654ZM555.74 120.04L600.303 138.422L601.444 135.771L556.881 117.389L555.74 120.04ZM599.539 136.546L595.538 145.841L598.206 146.942L602.208 137.647L599.539 136.546ZM597.443 145.066L552.88 126.684L551.739 129.335L596.302 147.717L597.443 145.066ZM553.643 128.56L557.645 119.265L554.976 118.165L550.975 127.459L553.643 128.56Z" fill="#1D1D1B"/>
<path d="M607.07 186.599L667.183 113.746L692.218 133.539C698.03 138.135 701.93 142.923 703.918 147.904C705.949 152.88 706.419 157.817 705.328 162.714C704.236 167.611 701.919 172.206 698.377 176.498C694.835 180.791 690.724 183.987 686.043 186.085C681.387 188.203 676.352 188.847 670.94 188.016C665.548 187.162 659.969 184.456 654.205 179.899L636.261 165.711L642.718 157.885L660.373 171.844C664.352 174.99 668.106 176.841 671.633 177.396C675.16 177.951 678.416 177.507 681.399 176.065C684.426 174.618 687.143 172.436 689.55 169.519C691.957 166.602 693.555 163.555 694.343 160.377C695.156 157.219 694.882 154.025 693.523 150.794C692.183 147.54 689.499 144.321 685.471 141.137L669.697 128.666L616.042 193.693L607.07 186.599Z" fill="#1D1D1B"/>
<path d="M607.07 186.599L605.935 185.702L605.014 186.818L606.149 187.715L607.07 186.599ZM667.183 113.746L668.104 112.63L666.969 111.733L666.048 112.849L667.183 113.746ZM703.918 147.904L702.556 148.431L702.561 148.441L703.918 147.904ZM705.328 162.714L703.9 162.414L703.9 162.414L705.328 162.714ZM686.043 186.085L685.44 184.783L685.433 184.787L686.043 186.085ZM670.94 188.016L670.701 189.43L670.708 189.431L670.94 188.016ZM636.261 165.711L635.126 164.814L634.205 165.93L635.34 166.827L636.261 165.711ZM642.718 157.885L643.639 156.769L642.504 155.872L641.583 156.988L642.718 157.885ZM671.633 177.396L671.871 175.982L671.871 175.982L671.633 177.396ZM681.399 176.065L680.763 174.778L680.757 174.781L681.399 176.065ZM694.343 160.377L692.926 160.033L692.923 160.045L694.343 160.377ZM693.523 150.794L692.167 151.335L692.171 151.345L693.523 150.794ZM669.697 128.666L670.618 127.55L669.483 126.652L668.562 127.768L669.697 128.666ZM616.042 193.693L615.121 194.809L616.256 195.706L617.177 194.59L616.042 193.693ZM608.205 187.497L668.318 114.643L666.048 112.849L605.935 185.702L608.205 187.497ZM666.262 114.862L691.297 134.656L693.139 132.423L668.104 112.63L666.262 114.862ZM691.297 134.656C696.982 139.151 700.689 143.75 702.556 148.431L705.28 147.377C703.172 142.096 699.078 137.12 693.139 132.423L691.297 134.656ZM702.561 148.441C704.492 153.172 704.924 157.817 703.9 162.414L706.756 163.014C707.914 157.816 707.407 152.588 705.276 147.367L702.561 148.441ZM703.9 162.414C702.861 167.072 700.655 171.465 697.242 175.601L699.512 177.396C703.183 172.947 705.61 168.151 706.756 163.014L703.9 162.414ZM697.242 175.601C693.83 179.737 689.895 182.786 685.44 184.783L686.647 187.387C691.553 185.187 695.841 181.845 699.512 177.396L697.242 175.601ZM685.433 184.787C681.058 186.776 676.319 187.391 671.173 186.601L670.708 189.431C676.385 190.302 681.715 189.63 686.654 187.384L685.433 184.787ZM671.18 186.602C666.111 185.799 660.761 183.238 655.126 178.782L653.284 181.015C659.178 185.674 664.985 188.524 670.701 189.43L671.18 186.602ZM655.126 178.782L637.182 164.595L635.34 166.827L653.284 181.015L655.126 178.782ZM637.396 166.609L643.853 158.783L641.583 156.988L635.126 164.814L637.396 166.609ZM641.797 159.001L659.452 172.96L661.294 170.728L643.639 156.769L641.797 159.001ZM659.452 172.96C663.548 176.198 667.532 178.202 671.395 178.81L671.871 175.982C668.68 175.48 665.157 173.782 661.294 170.728L659.452 172.96ZM671.395 178.81C675.198 179.408 678.764 178.933 682.041 177.349L680.757 174.781C678.068 176.081 675.123 176.494 671.871 175.982L671.395 178.81ZM682.035 177.352C685.28 175.801 688.161 173.475 690.685 170.417L688.415 168.622C686.125 171.397 683.572 173.436 680.763 174.778L682.035 177.352ZM690.685 170.417C693.208 167.358 694.917 164.122 695.763 160.71L692.923 160.045C692.193 162.988 690.705 165.846 688.415 168.622L690.685 170.417ZM695.76 160.722C696.656 157.242 696.344 153.734 694.874 150.243L692.171 151.345C693.421 154.315 693.656 157.196 692.926 160.033L695.76 160.722ZM694.879 150.253C693.414 146.696 690.532 143.294 686.392 140.021L684.55 142.253C688.466 145.349 690.952 148.384 692.167 151.335L694.879 150.253ZM686.392 140.021L670.618 127.55L668.777 129.782L684.55 142.253L686.392 140.021ZM668.562 127.768L614.907 192.795L617.177 194.59L670.833 129.563L668.562 127.768ZM616.963 192.577L607.991 185.483L606.149 187.715L615.121 194.809L616.963 192.577Z" fill="#1D1D1B"/>
<path d="M667.216 243.387L744.341 189.297L777.919 235.174L769.635 240.985L742.794 204.313L716.734 222.589L741.836 256.886L733.551 262.696L708.449 228.4L682.238 246.782L709.514 284.048L701.229 289.858L667.216 243.387Z" fill="#1D1D1B"/>
<path d="M667.216 243.387L666.363 242.222L665.182 243.051L666.034 244.216L667.216 243.387ZM744.341 189.297L745.523 188.468L744.67 187.304L743.489 188.132L744.341 189.297ZM777.919 235.174L778.772 236.339L779.953 235.51L779.101 234.346L777.919 235.174ZM769.635 240.985L768.453 241.813L769.305 242.978L770.487 242.149L769.635 240.985ZM742.794 204.313L743.975 203.484L743.123 202.319L741.941 203.148L742.794 204.313ZM716.734 222.589L715.881 221.425L714.7 222.253L715.552 223.418L716.734 222.589ZM741.836 256.886L742.688 258.05L743.87 257.222L743.017 256.057L741.836 256.886ZM733.551 262.696L732.369 263.525L733.222 264.689L734.403 263.861L733.551 262.696ZM708.449 228.4L709.63 227.571L708.778 226.406L707.596 227.235L708.449 228.4ZM682.238 246.782L681.386 245.617L680.204 246.446L681.056 247.61L682.238 246.782ZM709.514 284.048L710.366 285.212L711.547 284.384L710.695 283.219L709.514 284.048ZM701.229 289.858L700.047 290.687L700.899 291.851L702.081 291.023L701.229 289.858ZM668.068 244.552L745.194 190.462L743.489 188.132L666.363 242.222L668.068 244.552ZM743.16 190.126L776.738 236.003L779.101 234.346L745.523 188.468L743.16 190.126ZM777.067 234.01L768.782 239.82L770.487 242.149L778.772 236.339L777.067 234.01ZM770.816 240.156L743.975 203.484L741.612 205.141L768.453 241.813L770.816 240.156ZM741.941 203.148L715.881 221.425L717.586 223.754L743.646 205.477L741.941 203.148ZM715.552 223.418L740.654 257.714L743.017 256.057L717.915 221.76L715.552 223.418ZM740.983 255.721L732.698 261.532L734.403 263.861L742.688 258.05L740.983 255.721ZM734.732 261.867L709.63 227.571L707.267 229.228L732.369 263.525L734.732 261.867ZM707.596 227.235L681.386 245.617L683.09 247.946L709.301 229.564L707.596 227.235ZM681.056 247.61L708.332 284.876L710.695 283.219L683.42 245.953L681.056 247.61ZM708.661 282.883L700.376 288.694L702.081 291.023L710.366 285.212L708.661 282.883ZM702.41 289.029L668.397 242.558L666.034 244.216L700.047 290.687L702.41 289.029Z" fill="#1D1D1B"/>
<path d="M584.57 352.845C582.905 349.768 580.963 346.844 578.768 344.106C575.134 339.822 571.124 335.857 567.032 331.482C571.399 326.309 568.538 321.675 565.373 317.081C564.826 316.24 564.228 315.433 563.581 314.664C559.398 309.95 555.173 305.256 550.959 300.553C550.46 299.674 551.01 297.556 550.348 296.008C548.602 291.772 546.537 287.67 544.17 283.734C541.951 280.089 539.151 276.744 536.566 273.268C537.086 272.764 537.633 272.287 538.205 271.84C543.854 267.845 543.966 267.046 539.599 261.483C539.345 261.174 539.08 260.874 538.815 260.565C528.522 248.604 514.928 239.813 499.667 235.248C495.422 233.939 491.116 232.811 486.118 231.393C487.519 229.414 489.053 227.529 490.709 225.75C493.641 223.013 493.366 220.397 489.406 219.248C485.357 217.994 481.178 217.183 476.947 216.831C465.424 216.072 455.072 220.417 444.812 224.821C444.201 225.085 443.539 225.214 442.872 225.198C442.206 225.183 441.551 225.023 440.954 224.731C436.161 222.891 431.216 221.458 426.174 220.447C421.44 219.618 420.321 221.046 420.616 225.58C416.931 225.031 413.267 224.342 409.561 223.992C407.981 223.762 406.369 224.069 404.991 224.861C403.973 225.62 403.861 227.498 403.362 228.856C400.695 228.337 397.835 227.627 394.924 227.258C387.88 226.369 380.897 226.699 374.26 229.415C370.077 231.133 369.171 233.27 370.423 237.515C371.186 240.071 372.184 242.558 372.825 244.346C365.303 248.231 358.035 251.856 350.909 255.791C348.561 257.187 346.414 258.886 344.527 260.844C341.219 264.1 341.901 266.926 346.207 268.624C347.225 269.004 348.171 269.313 349.26 269.673C346.38 272.669 343.886 275.256 339.193 275.076C335.916 274.956 332.485 276.454 329.269 277.622C326.052 278.791 325.706 281.008 327.701 283.505C329.014 285.143 330.511 286.641 331.875 288.149C329.401 290.715 326.531 292.962 324.637 295.839C321.655 300.343 317.512 303.189 313.033 306.006C308.554 308.909 304.314 312.151 300.35 315.703C297.825 317.91 298.151 319.698 300.594 322.075C301.795 323.233 303.037 324.362 304.452 325.67L301.093 327.518C293.774 331.592 287.229 336.596 282.15 343.257C278.689 347.801 279.432 350.048 284.623 352.385C287.992 353.903 291.168 355.841 294.171 357.449C292.268 361.883 289.723 365.678 289.082 369.763C288.064 376.004 285.397 379.66 278.994 381.008C276.175 381.597 275.462 383.934 276.877 386.471C278.198 388.823 279.764 391.036 281.549 393.072C282.058 393.532 282.393 394.149 282.499 394.82C282.604 395.492 282.474 396.178 282.129 396.767C281.05 399.224 280.246 401.761 279.371 404.338C278.495 406.914 279.371 408.762 281.661 410.19C285 412.277 288.216 414.584 291.616 416.562C293.489 417.66 293.652 418.799 293.041 420.696C290.242 429.315 288.776 438.134 289.937 447.202C290.13 448.7 290.863 450.707 291.973 451.346C292.868 451.846 294.904 450.787 296.207 450.048C297.659 449.082 299.021 447.992 300.279 446.792C299.566 453.284 298.558 459.206 298.355 465.149C298.173 471.309 298.415 477.475 299.078 483.604C299.424 486.96 301.826 487.519 304.564 485.412C305.012 485.073 305.45 484.713 306.142 484.164C305.799 493.753 307.036 503.334 309.806 512.537C311.333 517.411 312.331 517.95 317.461 517.001C317.461 519.827 317.41 522.594 317.461 525.37C317.715 535.547 319.67 545.344 324.332 554.542C326.368 558.537 328.536 559.206 332.373 557.069C333.391 556.51 334.409 555.98 335.274 555.511C338.125 560.255 340.506 564.929 343.56 569.113C346.366 572.85 349.507 576.332 352.945 579.52C354.981 581.427 357.668 582.346 359.796 580.758C364.621 584.753 369.13 588.558 373.751 592.243C376.958 594.8 380.347 595.888 383.798 592.243C384.358 592.972 384.816 593.492 385.182 594.041C391.979 603.544 400.692 611.577 410.783 617.64C415.211 620.287 417.43 619.777 420.066 615.473C421.461 613.196 422.713 610.839 424.016 608.542C427.802 610.03 431.446 612.257 435.213 609.231C438.327 606.754 441.32 604.058 444.262 601.491C452.568 610.479 457.983 610.989 468.132 602.43C473.425 597.966 478.26 592.982 483.4 588.168C487.207 590.655 487.869 590.625 491.544 587.3C492.342 586.532 493.096 585.722 493.804 584.873C501.061 576.584 506.365 567.086 511.403 557.428C513.184 554.013 514.833 550.517 516.544 547.062C523.017 550.368 523.506 550.478 527.812 544.545C537.068 531.809 544.058 517.627 548.486 502.6C553.962 504.487 555.53 503.908 558.166 498.875C559.059 497.317 559.779 495.67 560.314 493.961C562.349 486.531 564.172 479.06 566.157 471.35C570.686 470.761 571.429 470.172 572.366 465.438C572.789 463.497 573.021 461.52 573.058 459.536C573.058 451.177 572.854 442.828 572.844 434.478C572.879 433.994 573.015 433.522 573.242 433.091C573.47 432.66 573.785 432.279 574.167 431.972C580.275 427.547 583.827 421.895 582.82 414.195C582.026 408.093 581.272 401.971 580.01 395.958C577.832 385.612 575.46 375.285 570.462 366.237C574.717 364.24 578.86 362.582 582.677 360.355C586.23 358.238 586.586 356.35 584.57 352.845ZM575.867 354.093C571.592 356.28 567.286 358.407 562.981 360.535C562.105 360.974 561.189 361.344 559.347 362.162L564.864 363.99C565.444 368.374 566.106 373.328 566.777 378.411C565.047 378.092 563.5 377.413 563.011 377.802C562.167 378.738 561.663 379.921 561.576 381.168C560.762 387.26 560.1 393.372 559.438 399.064L556.1 398.166C555.729 399.234 555.533 400.353 555.519 401.481C556.975 410.949 554.756 420.037 552.914 429.165L552.028 429.495C551.01 427.497 549.992 425.43 548.974 423.433C548.528 422.744 548.021 422.095 547.458 421.495C547.05 422.284 546.317 423.073 546.297 423.862C546.195 429.854 546.46 435.847 546.165 441.839C545.951 446.183 545.096 450.508 544.475 454.822C544.404 455.261 543.986 455.641 543.152 456.969C541.543 453.614 540.241 450.837 538.887 448.101C538.483 447.405 538.03 446.738 537.533 446.103C537.102 446.752 536.76 447.454 536.515 448.191C536.057 450.607 535.731 453.054 535.232 456.28C534.888 455.363 534.469 454.475 533.98 453.623C533.329 452.725 532.535 451.916 531.802 451.067C531.151 451.976 530.173 452.805 529.899 453.813C528.524 458.887 527.384 464.03 526.071 469.123C525.226 472.359 524.239 475.555 523.018 479.68C521.318 477.253 520.147 475.485 518.864 473.797C518.217 473.044 517.513 472.339 516.757 471.69C516.121 472.479 515.59 473.345 515.18 474.267C512.95 481.647 510.864 489.057 508.624 496.418C508.118 497.498 507.464 498.506 506.68 499.414C505.514 498.701 504.405 497.904 503.362 497.027C502.638 496.099 502.023 495.094 501.529 494.031C500.664 495.389 499.942 496.368 499.382 497.427C496.817 502.36 494.15 507.254 491.829 512.287C490.811 514.394 490.679 516.841 490.058 519.108C485.833 534.718 477.517 547.232 462.187 554.402C459.134 555.811 451.611 561.583 449.911 563.9C446.379 561.293 445.718 561.553 444.588 566.037C444.272 567.276 444.048 568.524 443.621 570.511C442.827 569.253 442.44 568.514 441.951 567.895C441.463 567.276 440.77 566.507 440.17 565.818C439.42 566.52 438.776 567.324 438.256 568.204C436.343 572.888 434.571 577.622 432.729 582.336C432.556 582.785 432.301 583.195 431.894 583.994C430.937 582.995 430.205 582.046 429.37 581.267C428.662 580.683 427.918 580.143 427.141 579.65C426.486 580.358 425.944 581.16 425.532 582.026C424.738 584.783 424.464 587.729 423.405 590.376C420.667 597.177 417.613 603.848 414.346 611.348C410.569 608.762 407.088 606.794 404.095 604.258C396.575 597.686 390.116 590.032 384.938 581.557C384.555 580.604 384.365 579.586 384.378 578.561C384.175 576.973 384.5 575.115 382.556 574.696C381.437 578.561 380.358 582.266 379.024 586.88C373.772 581.517 369.293 576.394 364.224 571.9C360.152 568.344 360.915 564.359 361.455 560.045C361.782 557.177 361.912 554.291 361.842 551.406C361.842 550.567 361.078 549.728 360.671 548.89L359.653 549.049C358.635 556.53 357.617 564.03 356.6 571.88C350.834 567.194 346.15 561.359 342.858 554.762C342.349 553.679 341.778 552.626 341.148 551.606C339.356 548.969 338.298 546.453 341.26 543.836C341.758 543.407 341.677 542.338 341.86 541.559L341.148 541.08L329.432 550.507L328.414 550.168C327.396 545.065 326.022 540.011 325.533 534.868C324.749 526.748 324.261 518.569 324.261 510.41C324.261 504.897 325.38 499.424 325.849 493.851C325.834 492.318 325.674 490.79 325.37 489.287L324.22 489.237C321.695 495.409 319.174 501.588 316.657 507.773H315.537C314.753 502.67 313.786 497.576 313.216 492.443C312.646 487.31 312.606 482.106 312.086 476.953C311.801 474.037 311.893 471.48 314.367 469.393C314.947 468.904 314.937 467.765 315.191 466.926C314.265 466.926 313.084 466.686 312.463 467.136C310.051 468.904 307.811 470.901 305.205 473.068C305.46 468.894 305.745 464.759 305.969 460.624C306.356 453.164 306.865 445.714 306.987 438.253C307.038 435.837 307.414 434.129 309.674 432.88C311.148 431.923 312.547 430.858 313.858 429.695L313.522 428.696C312.015 428.986 310.122 428.816 309.053 429.695C305.735 432.261 302.701 435.187 299.607 438.024C298.721 438.833 298.009 439.821 296.624 441.389C297.133 430.404 299.973 420.497 301.714 410.43L300.777 409.96L298.345 412.956C295.291 410.849 292.237 408.712 289.183 406.625C287.534 405.496 286.761 404.248 287.443 402.14C288.715 398.216 289.784 394.221 290.802 390.226C290.942 388.878 290.942 387.519 290.802 386.171L288.44 389.167L285.387 387.23C293.937 384.234 298.141 377.832 300.655 369.862L294.548 376.594L293.876 376.264C296.095 369.972 298.321 363.674 300.553 357.369L303.963 358.168C304.9 354.932 304.554 354.612 293.784 348.87C299.8 339.282 306.345 330.144 315.659 323.183L315.018 322.434L311.486 324.312C310.651 323.363 309.786 322.394 308.839 321.316C312.911 315.094 318.693 310.57 324.505 306.065C325.924 305.007 327.2 303.775 328.302 302.4C331.651 298.046 334.847 293.582 338.206 289.028C339.675 290.256 341.233 291.377 342.868 292.383C343.713 292.833 344.904 292.573 346.003 292.643C345.952 291.484 346.37 289.866 345.749 289.267C343.534 287.254 341.21 285.36 338.786 283.595C338.229 283.257 337.797 282.753 337.554 282.157L351.306 280.159L349.057 277.742C354.737 274.167 360.427 270.651 366.005 266.976C366.371 266.737 366.158 264.669 365.801 264.539C363.542 263.746 361.225 263.122 358.87 262.672C357.483 262.486 356.085 262.396 354.686 262.402L354.279 261.503L381.09 248.101L378.994 239.033C390.506 233.35 402.212 234.339 413.908 239.732C415.944 236.985 413.806 234.738 413.032 231.602L428.881 235.997C431.192 234.389 428.199 231.413 429.451 228.676C432.851 229.994 436.353 231.183 439.63 232.741C440.177 233.11 440.828 233.301 441.491 233.287C442.154 233.273 442.796 233.054 443.325 232.661C453.891 226.559 465.139 222.794 477.527 224.092L474.087 237.964L475.359 238.733L479.288 235.647C505.245 243.307 526.051 254.892 533.115 265.608C529.441 268.315 524.208 269.493 523.262 275.425C524.28 275.425 525.155 275.695 525.603 275.425C528.28 273.588 529.949 275.046 531.313 277.073C535.1 282.696 538.785 288.368 542.582 294.131C536.698 298.126 531.7 302.061 530.784 309.491C532.179 308.772 533.644 308.153 534.958 307.314C541.116 303.389 541.208 303.229 547.03 307.603C554.389 313.146 560.365 318.13 563.317 324.581L558.125 328.676L552.781 326.519L552.201 327.567C554.695 329.515 557.138 331.562 559.683 333.39C566.35 338.284 571.49 344.555 576.417 351.037C577.638 352.315 577.455 353.324 575.867 354.093Z" fill="black"/>
<path d="M523.339 383.407C523.339 381.159 522.515 380.146 520.124 380.416C518.825 380.612 517.494 380.5 516.251 380.089C515.008 379.678 513.892 378.982 513.003 378.062C511.283 376.326 509.432 374.676 507.916 372.795C499.706 362.618 489.207 356.212 475.442 356.087C469.929 355.968 464.448 356.926 459.341 358.901C454.234 360.876 449.61 363.826 445.756 367.567C444.186 369.13 442.289 370.366 440.187 371.196C438.086 372.027 435.825 372.433 433.548 372.39C425.728 372.255 417.901 372.255 410.068 372.39C408.246 372.454 406.431 372.141 404.748 371.475C403.065 370.809 401.555 369.805 400.322 368.531C396.62 364.928 392.188 362.071 387.294 360.132C382.399 358.192 377.141 357.21 371.836 357.245C357.166 357.09 346.199 363.92 337.755 374.908C334.754 378.767 331.366 382.114 325.547 381.661C325.026 381.731 324.533 381.928 324.116 382.232C323.699 382.536 323.372 382.937 323.166 383.397C322.709 386.441 322.535 389.517 322.647 392.59C322.647 393.555 323.99 395.166 324.896 395.282C329.779 395.938 331.936 398.687 332.953 402.999C336.799 419.273 352.547 431.544 370.137 431.332C376.801 431.245 383.454 429.499 390.108 428.505L364.989 440.043C367.409 440.331 369.863 440.201 372.233 439.657C376.618 438.538 380.372 438.307 384.553 437.207L384.36 437.38C379.425 441.345 375.427 446.063 374.715 452.275C374.176 457.098 374.817 461.989 374.837 466.851C374.837 468.048 374.898 469.745 374.156 470.353C368.184 474.974 365 481.129 363.524 488.016C361.897 495.531 361.775 502.969 367.757 509.239C367.954 509.502 368.094 509.8 368.169 510.114C368.244 510.429 368.252 510.754 368.194 511.072C366.912 518.327 369.272 524.722 373.362 530.665C377.452 536.607 383.352 541.276 389.395 545.54C405.073 556.538 423.1 558.747 441.707 556.595C458.31 554.666 470.427 545.752 477.721 531.446C480.987 525.031 484.456 518.452 481.882 510.86C481.77 510.522 482.198 510.011 482.381 509.577C483.492 507.323 484.447 505.003 485.239 502.631C488.851 488.933 483.317 478.736 469.745 472.987C468.982 475.167 468.362 477.386 467.436 479.498C466.51 481.611 465.239 483.772 464.079 485.981C464.395 486.202 464.736 486.39 465.096 486.54C467.814 487.346 470.317 488.695 472.439 490.495C474.561 492.296 476.251 494.506 477.396 496.978C479.369 501.04 478.484 508.246 473.845 510.571C469.572 512.722 465.829 515.568 461.637 517.844C461.057 518.163 460.528 518.577 459.979 518.944L460.416 519.986C462.777 519.436 464.72 518.394 467.538 517.748L462.949 527.395L459.582 527.684L460.599 531.012C459.383 532.946 458.002 534.782 456.469 536.501C454.434 538.517 453.905 542.366 449.653 541.961C449.51 541.961 449.246 542.858 449.073 543.35C448.9 543.842 448.9 544.855 448.462 545.28C444.733 548.827 440.127 551.433 435.064 552.862C427.444 554.791 419.997 553.827 412.56 552.168C396.792 548.743 384.644 540.196 375.417 527.848C372.084 523.382 370.458 517.971 370.809 512.51C375.102 513.899 379.253 515.288 383.434 516.59C385.713 517.304 388.124 517.661 390.321 518.52C396.283 520.864 402.102 523.555 408.094 525.822C415.907 528.784 424.199 529.015 432.51 529.411C437.78 529.662 442.369 528.224 447.008 526.517C446.896 524.587 446.133 524.394 444.434 524.935C442.168 525.537 439.869 526.016 437.546 526.372C437.434 525.919 437.333 525.465 437.221 525.012L445.716 523.517C440.883 515.799 432.887 516.581 425.216 516.966C425.328 514.314 425.379 514.468 427.342 513.947C430.801 512.982 434.209 511.883 437.628 510.841C437.536 510.542 437.434 510.252 437.343 509.963C431.89 510.841 426.417 511.583 421.004 512.616C408.867 514.931 396.771 516.542 384.38 514.043C373.535 511.854 366.424 505.718 365.976 497.239C365.601 490.468 367.538 483.763 371.5 478.119C372.93 476.254 374.472 474.47 376.119 472.774C378.306 476.633 380.107 480.202 382.223 483.56C384.346 486.893 387.694 489.364 391.623 490.496C396.14 491.894 401.166 490.988 403.832 487.968C401.156 487.968 398.745 488.026 396.405 487.968C392 487.852 388.175 486.28 385.631 482.894C380.505 476.051 377.634 467.92 377.381 459.529C376.607 443.197 396.995 428.853 412.581 435.856C412.937 436.011 413.496 435.75 414.076 435.663C413.955 434.62 413.47 433.646 412.697 432.894C411.925 432.143 410.91 431.657 409.814 431.515C406.334 431.091 402.631 430.55 399.274 431.216C395.612 432.1 392.041 433.291 388.602 434.776C391.237 432.441 392.325 430.551 395.072 428.187C394.869 427.936 395.174 427.28 394.97 427.02C394.341 427.073 393.708 427.073 393.078 427.02C393.302 426.788 395.764 425.582 396.039 425.428C407.331 419.023 411.299 410.553 412.316 398.137C412.611 394.452 412.316 390.729 412.316 387.043H433.68C434.281 392.832 434.037 398.62 435.573 403.858C440.069 419.177 451.362 427.328 467.751 429.904C488.841 433.271 508.72 421.039 513.532 401.272C514.549 397.327 516.726 394.713 521.192 394.269C523.227 394.076 523.99 393.005 523.858 391.153C523.593 388.587 523.309 385.992 523.339 383.407ZM435.318 526.488H424.514C428.126 524.964 434.657 525.05 435.318 526.488ZM423.11 516.841H413.954C420.943 514.68 422.48 514.651 423.07 516.802L423.11 516.841ZM371.836 427.29C350.299 427.078 336.758 410.292 337.114 392.677C337.409 378.39 350.96 361.962 370.402 362.357C390.087 362.425 406.823 377.609 406.782 395.359C406.7 412.849 390.799 427.435 371.795 427.251L371.836 427.29ZM474.201 426.142C455.299 426.065 439.612 411.527 439.612 394.115C439.612 376.364 456.469 361.171 476.083 361.2C480.453 361.178 484.784 361.981 488.823 363.562C492.862 365.143 496.528 367.471 499.609 370.41C502.689 373.349 505.121 376.84 506.764 380.68C508.407 384.519 509.228 388.63 509.178 392.774C509.157 411.527 493.785 426.18 474.161 426.103L474.201 426.142Z" fill="black"/>
<path d="M513.294 416.271C509.123 425.336 502.35 432.454 495.374 439.433C493.712 441.09 492.243 442.937 490.774 444.594C489.653 444.205 488.011 443.017 486.695 443.296C482.33 444.205 478.077 445.642 473.783 446.88C476.279 454.802 476.852 463.184 475.455 471.36C478.165 472.689 480.801 474.158 483.35 475.763C485.85 477.68 488.25 479.719 490.54 481.873L495.772 469.184C497.924 472.848 498.607 472.828 500.821 469.354C503.88 464.571 505.971 459.5 505.696 453.709C509.245 454.348 510.326 453.709 511.132 449.047C512.978 438.414 514.498 427.712 516.048 417.029C516.15 416.281 515.436 415.412 515.109 414.593C514.487 415.132 513.61 415.552 513.294 416.271Z" fill="black"/>
<path d="M439.781 353.698C440.62 353.215 441.418 352.667 442.168 352.061V358.72L449.307 349.685C450.796 353.539 450.796 353.539 455.937 350.254C456.732 353.309 458.282 352.351 460.128 351.133C461.618 350.134 463.77 348.467 464.902 348.906C468.063 350.114 469.461 347.808 471.551 346.81C472.775 346.211 475.162 345.312 475.284 345.532C477.008 348.437 478.803 346.251 480.527 345.791C482.515 345.252 484.555 344.014 485.932 346.909C486.156 347.369 487.901 347.598 488.655 347.279C494.03 345.023 498.477 346.84 502.934 349.815C504.137 350.613 505.994 350.454 507.595 350.693C509.737 351.013 512.378 350.633 513.918 351.742C516.682 353.738 518.804 356.574 521.149 359.099C521.815 359.896 522.438 360.726 523.016 361.585L523.913 361.116C523.179 358.401 522.261 355.715 521.731 352.96C520.925 348.766 518.253 346.191 513.969 345.881C513.398 345.831 512.521 345.881 512.307 345.572C511.439 344.122 510.129 342.975 508.562 342.291C506.994 341.607 505.248 341.421 503.566 341.758C500.894 339.871 499.262 338.034 497.284 337.515C495.081 336.936 492.551 337.575 490.144 337.685C488.533 332.803 485.545 332.004 476.886 334.2C476.09 331.804 475.723 331.375 473.306 332.024C470.807 332.825 468.367 333.792 466.003 334.919C465.442 335.149 464.616 335.858 464.453 335.728C461.771 333.442 459.578 336.147 457.538 336.417C457.334 335.249 457.161 334.22 456.987 333.192C455.896 333.571 454.529 333.671 453.785 334.4C451.745 336.397 449.889 338.633 447.91 340.839C447.186 339.242 446.319 336.956 444.626 339.272C441.85 343.28 439.316 347.444 437.038 351.742C436.65 352.42 437.119 353.559 437.191 354.487C438.072 354.284 438.938 354.02 439.781 353.698V353.698Z" fill="black"/>
<path d="M344.603 346.468C343.058 346.481 341.555 346.957 340.294 347.831C339.034 348.706 338.078 349.938 337.555 351.36C336.548 354.359 335.72 357.412 335.077 360.505C335.044 361.021 335.106 361.539 335.26 362.033C336.443 361.095 337.397 359.912 338.055 358.569C340.952 353.377 346.469 350.042 350.794 351.34C353.109 352.029 354.567 351.42 356.322 350.122C360.34 347.127 364.715 345.759 369.744 347.796C370.58 348.136 372.446 347.946 372.701 347.447C374.048 344.841 375.934 345.76 377.872 346.289C379.81 346.818 381.605 349.174 383.278 346.029C383.349 345.889 384.44 346.109 384.94 346.378C386.46 347.187 387.898 348.106 389.387 348.954C390.081 349.344 391.039 350.152 391.427 349.953C394.487 348.515 396.598 350.502 398.729 351.949C400.637 353.257 401.983 353.357 402.666 350.851C407.664 354.136 407.664 354.136 409.316 350.382L416.537 359.467V353.477C418.006 353.207 420.045 353.247 420.209 352.728C420.529 351.422 420.359 350.047 419.729 348.854C418.269 346.249 416.665 343.723 414.925 341.287C414.344 340.438 413.436 339.24 412.682 339.24C411.927 339.24 411.121 340.508 410.387 341.187C408.52 339.11 406.746 336.914 404.716 334.987C403.972 334.278 402.595 334.208 401.503 333.849C401.361 334.847 401.208 335.916 401.055 336.954C399.606 336.495 397.577 335.117 396.271 335.606C394.232 336.365 392.997 335.826 391.417 334.937C389.789 334.121 388.114 333.401 386.399 332.781C386.108 332.689 385.806 332.632 385.501 332.611C383.614 332.371 381.656 332.012 381.85 334.907C373.283 332.521 370.774 333.22 368.102 338.561C360.86 337.054 359.391 337.563 356.067 342.615C350.967 342.105 350.967 342.125 346.449 346.019C345.89 346.339 345.249 346.495 344.603 346.468V346.468Z" fill="black"/>
<path d="M466.313 438.741C465.477 437.743 464.599 436.745 463.437 435.427C468.536 436.645 473.146 437.533 478.603 435.287L474.319 433.72C470.24 432.262 466.16 430.725 462.08 429.357C461.007 429.041 459.918 428.781 458.817 428.578C458.98 429.676 459.123 430.775 459.327 431.863C459.475 432.268 459.673 432.653 459.918 433.011C448.434 429.167 440.54 430.166 438.5 436.006C439.579 435.983 440.65 435.815 441.682 435.507C443.259 434.663 445.063 434.317 446.849 434.515C448.634 434.713 450.313 435.447 451.657 436.615C454.37 438.801 457.562 440.938 459.184 443.823C466.629 457.201 467.18 471.178 460.632 485.056C458.337 489.918 454.349 493.691 448.465 494.51C446.272 494.82 444.018 494.75 441.794 494.85C447.751 497.405 453.472 498.793 459.225 494.271C466.925 488.28 471.168 480.353 473.095 471.158C475.553 459.458 474.258 448.406 466.313 438.741Z" fill="black"/>
<path d="M549.428 363.453C548.348 362.862 547.397 362.095 546.376 361.379C540.306 357.324 535.408 352.522 534.167 345.512C533.888 343.966 533.83 342.4 533.679 340.824L532.426 340.596L529.281 348.789L525.033 347.15L536.546 366.855C524.743 366.855 524.743 366.855 523.872 369.583C526.797 370.267 532.519 374.291 534.387 376.977C534.857 377.564 535.291 378.174 535.687 378.803C537.892 382.951 540.167 387.099 542.221 391.248C543.544 393.965 544.414 396.848 545.702 399.545C546.394 400.628 547.236 401.628 548.209 402.521L549.056 402.117C549.148 401.721 549.195 401.318 549.196 400.914C549.157 400.297 549.048 399.685 548.871 399.088C546.786 393.002 547.465 386.426 550.762 380.784C551.943 378.894 552.878 376.89 553.548 374.81C554.906 369.956 556.855 367.436 549.428 363.453Z" fill="black"/>
<path d="M336.078 368.497C336.456 368.607 336.966 368.248 338.016 367.928C334.681 363.865 330.418 366.141 326.226 365.223C329.469 359.163 332.641 353.242 335.813 347.252L335.334 346.783L332.509 348.041C331.111 345.555 331.682 342.21 328.429 339.794C328.633 346.434 326.756 351.725 322.463 355.858C319.413 358.626 316.168 361.182 312.753 363.506C310.519 365.123 309.54 367.17 310.295 369.695C311.22 372.922 312.375 376.082 313.753 379.15C315.435 382.844 316.629 386.578 316.17 390.641C315.843 393.556 315.354 396.452 314.936 399.357L316.047 399.916C317.067 398.249 318.587 396.711 319.107 394.924C321.28 387.111 324.657 379.667 329.123 372.85C330.979 370.055 331.907 367.279 336.078 368.497Z" fill="black"/>
<path d="M422.577 478.18C426.554 472.259 426.707 462.945 419.711 457.504C413.703 452.831 403.535 454.229 399.884 456.954C394.009 461.337 396.304 473.318 401.107 477.82L399.7 468.016C406.697 473.797 414.254 473.677 422.444 472.369C421.822 474.825 421.302 476.882 420.567 479.827C421.296 479.351 421.97 478.799 422.577 478.18Z" fill="black"/>
<path d="M446.38 472.542C449.949 471.873 453.285 469.976 457.079 468.479C456.62 471.394 456.12 474.619 455.528 478.403C458.455 475.407 459.169 472.053 459.975 468.768C461.811 461.311 458.557 456.199 450.949 454.791C444.911 453.683 439.24 454.671 435.059 459.374C430.602 464.366 430.428 470.196 433.019 476.136C433.669 477.304 434.438 478.404 435.314 479.421L435.987 478.982L434.396 472.682C438.781 472.692 442.698 473.201 446.38 472.542Z" fill="black"/>
<path d="M439.373 422.796C441.651 424.068 443.832 425.5 445.9 427.079C448.705 429.455 451.816 430.293 456.375 430.014C455.618 428.87 454.75 427.8 453.784 426.819C446.737 421.118 441.005 414.729 439.628 405.344C438.761 399.414 437.15 393.593 435.875 387.773H428.134C428.409 390.319 426.716 392.635 426.828 394.961C427.042 399.224 427.379 399.504 431.713 397.876C431.713 401.87 431.917 405.743 431.713 409.587C431.244 415.757 434.416 419.721 439.373 422.796Z" fill="black"/>
<path d="M460.056 508.661C459.036 506.315 458.291 503.839 457.384 501.443C456.894 500.175 456.302 498.937 455.762 497.689L454.864 497.579C453.559 506.724 450.469 514.551 439.566 516.438C443.727 518.734 447.725 520.002 450.356 522.648C452.988 525.294 454.436 529.487 456.353 533.001C458.24 529.157 459.413 524.775 462.126 521.809C464.839 518.844 469.266 517.167 473.345 514.681C472.111 514.392 471.122 514.112 470.112 513.932C466.216 513.243 461.973 512.984 460.056 508.661ZM456.507 528.538C454.355 523.287 451.968 518.395 444.767 516.558C452.59 515.18 454.518 510.039 455.64 504.098C456.772 510.358 459.434 514.901 467.226 516.019C460.168 518.115 457.21 522.359 456.507 528.538V528.538Z" fill="black"/>
<path d="M442.229 319.51C442.345 320.233 442.594 320.93 442.963 321.567C443.552 321.305 444.104 320.97 444.605 320.569C445.451 319.67 446.175 318.662 446.951 317.693L446.828 317.803C447.32 316.743 447.929 315.739 448.644 314.808C454.223 308.908 459.72 302.908 465.584 297.287C469.256 293.782 473.519 290.867 477.517 287.692C477.425 287.383 477.323 287.083 477.232 286.774C476.134 286.882 475.053 287.113 474.009 287.463C460.118 293.922 449.919 304.066 442.953 317.414C442.567 318.057 442.321 318.77 442.229 319.51V319.51Z" fill="black"/>
<path d="M399.484 292.072C403.895 296.525 407.655 301.636 411.696 306.454L411.597 306.356C412.051 306.947 412.545 307.506 413.076 308.03C413.799 308.602 414.551 309.137 415.33 309.633C415.33 308.663 415.718 307.487 415.33 306.757C413.22 303.07 411.236 299.241 408.593 295.946C402.911 288.822 396.174 282.9 387.634 279.267C386.707 278.971 385.752 278.771 384.784 278.67L384.54 279.472L386.542 281.146C390.907 284.815 395.552 288.101 399.484 292.072Z" fill="black"/>
<path d="M389.778 272.863C393.388 269.868 396.672 266.313 402.272 267.871C404.362 268.44 405.494 266.773 404.617 264.746C404.231 263.977 403.788 263.236 403.292 262.53L403.689 261.821C406.402 262.739 409.085 263.738 411.848 264.546C412.924 264.741 414.019 264.815 415.112 264.766C414.582 263.638 414.347 261.871 413.46 261.471C410.283 259.981 406.962 258.804 403.546 257.957C399.64 257.069 397.927 258.816 398.192 262.889C393.092 264.017 389.013 266.283 387.075 271.036C386.708 271.944 387.218 273.202 387.32 274.3C388.182 273.896 389.005 273.414 389.778 272.863V272.863Z" fill="black"/>
<path d="M507.68 284.043L508.139 284.523C506.945 285.713 505.831 286.976 504.803 288.306C504.314 288.995 503.957 290.303 504.324 290.882C504.691 291.461 506.017 291.711 506.925 291.711C508.832 291.711 510.739 291.262 512.647 291.272C516.808 291.272 518.103 293.099 517.012 296.982C516.624 298.38 516.349 299.808 515.992 301.225L516.951 301.495C518.919 299.209 521.03 296.783 520.296 293.508C519.052 288.266 514.176 288.386 509.658 287.927C510.342 287.138 510.892 286.739 511.076 286.23C511.525 285.002 512.412 283.394 511.963 282.536C511.514 281.677 509.515 280.978 508.394 281.198C504.968 281.922 501.592 282.855 498.286 283.993C497.521 284.243 497.001 285.182 496.359 285.8L496.889 286.799L507.68 284.043Z" fill="black"/>
<path d="M434.368 368.357C434.072 364.044 433.97 359.9 433.348 355.827C433.205 354.779 433.144 353.431 432.022 353.142C431.268 352.962 429.575 354.709 429.564 357.664C429.564 362.087 430.115 363.654 428.544 368.357H434.368Z" fill="black"/>
<path d="M346.575 503.847C346.392 503.288 344.862 502.849 343.954 502.849C343.353 502.849 342.751 503.717 341.425 504.776C340.568 499.494 339.793 494.792 338.936 489.491C336.305 493.484 336.254 502.649 338.702 505.465C339.62 506.523 341.374 506.892 342.781 507.581C344.617 510.197 346.555 512.982 348.901 516.267C349.156 515.269 349.441 514.759 349.35 514.37C348.432 510.866 347.646 507.312 346.575 503.847Z" fill="black"/>
<path d="M399.108 579.054C398.527 577.247 398.088 575.609 397.466 574.062C397.201 573.453 396.446 573.064 395.875 572.574C395.406 573.134 394.631 573.573 394.508 574.252C393.417 579.553 396.905 582.838 402.28 581.42C403.014 583.217 403.606 585.114 404.524 586.851C405.442 588.588 406.054 590.845 408.971 590.355C408.144 587.57 407.441 584.924 406.574 582.368C405.146 578.065 403.79 577.456 399.108 579.054Z" fill="black"/>
<path d="M441.138 319.518C441.393 319.239 441.413 318.779 441.576 318.42L449.297 300.389C449.613 299.651 449.858 298.892 450.133 298.143C444.014 301.687 440.771 306.979 439.129 313.298C438.685 315.233 438.439 317.206 438.394 319.189C438.394 319.838 438.955 320.506 439.261 321.185C439.917 320.663 440.544 320.107 441.138 319.518V319.518Z" fill="black"/>
<path d="M409.792 296.691C409.711 297.355 409.711 298.025 409.792 298.688C412.76 305.517 415.738 312.336 418.788 319.125C419.063 319.724 419.808 320.123 420.369 320.612C420.715 319.983 421.389 319.364 421.389 318.745C421.164 309.83 417.401 302.722 409.792 296.691Z" fill="black"/>
<path d="M420.435 402.604L419.568 402.714L410.389 420.475C415.437 419.477 421.384 411.011 421.322 406.079C421.163 404.891 420.865 403.726 420.435 402.604Z" fill="black"/>
<path d="M446.505 322.19C447.704 321.968 448.868 321.589 449.963 321.061C452.003 319.744 453.828 318.176 455.705 316.659C457.184 315.461 458.612 314.193 460.07 312.945L459.55 311.946C457.755 312.286 455.776 312.276 454.206 313.054C451.711 314.451 449.303 315.992 446.995 317.667C446.913 317.935 446.852 318.209 446.811 318.486C446.699 319.704 446.607 320.952 446.505 322.19Z" fill="black"/>
<path d="M400.1 311.447C399.978 311.817 399.845 312.186 399.723 312.545C402.783 314.962 405.71 317.477 408.902 319.744C410.293 320.527 411.771 321.15 413.308 321.601C413.145 320.093 412.982 318.606 412.829 317.058C410.428 315.34 407.925 313.763 405.332 312.336C403.792 311.587 401.844 311.707 400.1 311.447Z" fill="black"/>
<path d="M499.162 429.251L483.119 437.238C488.3 440.123 498.866 434.243 499.162 429.251Z" fill="black"/>
<path d="M349.902 515.686C350.606 519.549 350.78 523.972 355.216 525.829C354.104 519.839 353.044 514.218 351.891 508.018C348.577 510.454 349.474 513.339 349.902 515.686Z" fill="black"/>
<path d="M373.272 435.767C367.153 435.148 361.962 436.645 356.24 437.993C361.554 440.739 370.06 439.75 373.272 435.767Z" fill="black"/>
<path d="M430.065 430.533L421.263 426.27C420.578 425.868 419.854 425.533 419.101 425.272C418.555 425.162 417.988 425.266 417.52 425.562C417.306 425.711 417.367 426.46 417.52 426.859C419.08 430.943 427.484 434.028 430.065 430.533Z" fill="black"/>
<path d="M465.842 316.356C465.414 317.145 465.393 318.912 465.842 319.231C466.319 319.501 466.856 319.654 467.407 319.676C467.957 319.699 468.505 319.591 469.004 319.361C471.36 317.554 473.43 315.368 475.745 313.271C472.339 312.243 467.239 313.81 465.842 316.356Z" fill="black"/>
<path d="M383.75 312.711L389.105 317.453C389.625 317.922 390.125 318.651 390.696 318.771C391.797 318.886 392.909 318.886 394.01 318.771C394.01 317.683 394.327 316.345 393.806 315.546C392.164 313.04 387.452 311.693 383.75 312.711Z" fill="black"/>
<path d="M433.577 439.348C430.639 439.168 427.977 438.929 425.305 438.889C424.367 439.01 423.45 439.259 422.582 439.627C423.123 440.626 423.429 441.944 424.255 442.403C426.927 443.88 431.312 442.473 433.577 439.348Z" fill="black"/>
<path d="M427.719 539.505C427.658 541.901 427.719 544.307 427.719 546.713L429.249 546.763C429.525 544.506 429.851 542.25 430.014 539.984C430.014 539.624 429.361 538.985 428.902 538.876C428.443 538.766 427.73 539.265 427.719 539.505Z" fill="black"/>
<path d="M382.143 484.667C379.083 485.666 377.676 488.102 378.746 490.977C380.501 489.04 382.592 487.683 382.143 484.667Z" fill="black"/>
<path d="M386.503 523.365C384.943 524.014 384.616 527.278 386.36 529.525C387.098 527.898 387.738 526.232 388.278 524.533C388.339 524.283 386.891 523.205 386.503 523.365Z" fill="black"/>
<path d="M477.324 506.062C476.08 504.694 474.887 503.256 473.53 501.978C473.204 501.679 472.347 501.918 471.725 501.908C471.806 502.537 471.643 503.446 472.01 503.755C473.367 504.894 474.907 505.842 476.376 506.86L477.324 506.062Z" fill="black"/>
<path d="M393.76 506.005C393.169 507.492 392.74 509.06 392.322 510.597L393.618 511.086C394.393 509.679 395.249 508.311 395.892 506.853C395.905 506.583 395.847 506.313 395.723 506.07C395.6 505.828 395.416 505.619 395.188 505.466C394.923 505.426 394.652 505.455 394.401 505.549C394.151 505.644 393.93 505.801 393.76 506.005V506.005Z" fill="black"/>
<path d="M397.647 544.414C398.493 543.592 399.227 542.665 399.83 541.658C400.023 541.239 399.146 540.36 398.81 539.661C397.983 540.41 397.168 541.169 396.066 542.187L397.647 544.414Z" fill="black"/>
<path d="M376.633 504.449L377.378 505.198C378.313 504.624 379.169 503.937 379.927 503.151C380.269 502.351 380.453 501.493 380.468 500.625C379.667 500.898 378.916 501.296 378.244 501.804C377.611 502.626 377.071 503.513 376.633 504.449V504.449Z" fill="black"/>
<path d="M411.565 496.029C411.167 496.598 410.412 497.197 410.443 497.736C410.617 499.132 410.893 500.513 411.269 501.87H412.085C412.374 500.391 412.579 498.898 412.697 497.397C412.727 496.978 411.973 496.499 411.565 496.029Z" fill="black"/>
<path d="M428.497 504.352C428.405 505.66 428.283 506.968 428.242 508.276C428.242 508.475 428.65 508.675 428.874 508.875H429.792C429.792 507.477 429.792 506.069 429.792 504.672C429.731 504.542 428.895 504.452 428.497 504.352Z" fill="black"/>
<path d="M386.463 364.672L363.057 421.728C364.968 422.569 366.96 423.221 369.003 423.675L392.165 367.347C390.359 366.273 388.45 365.377 386.463 364.672Z" fill="black"/>
<path d="M375.95 362.918C369.445 362.913 363.099 364.884 357.788 368.56C352.477 372.235 348.463 377.434 346.299 383.439C344.135 389.443 343.929 395.957 345.709 402.081C347.489 408.206 351.167 413.638 356.235 417.628L378.673 363.038C377.745 362.958 376.878 362.918 375.95 362.918Z" fill="black"/>
<path d="M388.86 421.724C396.264 418.457 402.089 412.512 405.115 405.135C408.142 397.758 408.135 389.521 405.097 382.149L388.86 421.724Z" fill="black"/>
<path d="M447.499 392.667C447.504 395.712 447.968 398.74 448.876 401.652L463.563 365.821C458.688 368.493 454.63 372.39 451.807 377.108C448.983 381.827 447.496 387.198 447.499 392.667V392.667Z" fill="black"/>
<path d="M489.299 363.644L465.902 420.691C468.236 421.731 470.692 422.486 473.215 422.937L496.173 367.028C494.034 365.626 491.725 364.489 489.299 363.644V363.644Z" fill="black"/>
<path d="M484.326 422.992C489.605 422.098 494.562 419.897 498.727 416.599C502.892 413.301 506.126 409.016 508.122 404.15C510.118 399.283 510.81 393.998 510.131 388.797C509.452 383.595 507.426 378.65 504.245 374.431L484.326 422.992Z" fill="black"/>
<path d="M623.556 233.35C578.987 189.723 520.343 162.574 457.616 156.527C394.89 150.48 331.962 165.911 279.555 200.189C227.148 234.468 188.504 285.474 170.208 344.516C151.913 403.558 155.097 466.984 179.218 523.985C203.34 580.987 246.906 628.038 302.494 657.122C358.082 686.206 422.252 695.522 484.071 683.484C545.889 671.447 601.531 638.799 641.516 591.105C681.501 543.41 703.355 483.62 703.354 421.922C703.453 386.886 696.452 352.179 682.754 319.811C669.057 287.442 648.936 258.055 623.556 233.35V233.35ZM594.132 365.514C592.867 370.057 588.461 372.912 584.769 374.889C583.716 375.436 582.634 375.926 581.526 376.356L583.025 380.979C585.065 387.248 587.186 393.738 589.002 400.177C591.664 409.552 592.286 418.078 590.909 426.254C589.706 433.483 585.31 438.305 582.107 441.3L582.015 441.39C581.964 441.737 581.943 442.087 581.954 442.438C581.832 451.423 581.618 461.976 580.934 472.758C580.547 478.828 577.089 483.211 571.572 484.809C571.174 486.676 570.817 488.612 570.47 490.479C569.79 494.577 568.884 498.637 567.757 502.639C566.382 506.77 564.192 510.596 561.311 513.901C559.727 515.544 557.724 516.743 555.508 517.375C554.841 517.598 554.19 517.865 553.56 518.174C553.223 518.354 552.999 518.493 552.856 518.583L552.285 520.221C549.072 529.376 545.758 538.84 540.138 547.396C537.475 551.377 534.552 555.186 531.387 558.797C528.134 562.591 524.625 563.39 522.208 563.39C521.61 563.389 521.013 563.339 520.423 563.24C519.342 565.237 518.264 567.254 517.19 569.29C513.824 575.61 510.347 582.139 506.583 588.419C503.863 592.646 500.672 596.563 497.067 600.1C495.527 601.871 493.487 603.159 491.204 603.802C488.92 604.444 486.493 604.414 484.227 603.714C482.279 605.611 480.331 607.578 478.444 609.484C476.2 611.741 473.885 614.087 471.539 616.353C467.279 620.285 461.637 622.462 455.781 622.433C451.525 622.459 447.355 621.261 443.787 618.989C442.401 620.983 440.529 622.609 438.341 623.719C436.153 624.829 433.717 625.389 431.253 625.348C430.069 625.345 428.889 625.241 427.724 625.039C424.073 630.889 419.493 633.854 414.088 633.854C410.385 633.854 406.398 632.447 401.849 629.532C394.159 624.54 387.315 617.881 380.92 609.145L380.859 609.065C380.097 609.188 379.326 609.252 378.554 609.255C374.861 609.153 371.314 607.821 368.498 605.481C366.081 603.634 363.867 601.607 361.715 599.64C360.4 598.432 359.155 597.294 357.87 596.196L357.738 596.086C357.179 596.142 356.617 596.169 356.055 596.166C353.536 596.173 351.054 595.57 348.83 594.412C346.606 593.254 344.708 591.576 343.306 589.527C339.971 584.974 336.809 580.252 333.75 575.67L331.496 572.295C330.229 572.656 328.919 572.848 327.6 572.864C321.939 572.864 318.961 568.871 316.595 564.658C311.567 555.603 309.721 545.689 308.119 535.555V535.316C307.752 532.99 307.64 532.61 306.661 531.931C301.561 528.377 300.184 522.467 299.521 518.334C298.828 513.731 298.226 509.059 297.655 504.536C297.522 503.538 297.4 502.54 297.267 501.541C293.616 500.263 290.24 497.548 289.792 490.978C289.51 485.293 289.551 479.597 289.914 473.916L290.006 471.77C290.087 470.033 290.281 468.326 290.505 466.658C286.558 466.339 281.01 464.102 280.5 454.259C279.99 444.415 280.602 436.178 282.428 428.661C279.396 426.485 276.485 424.152 273.708 421.672C268.659 417.229 267.588 411.249 270.995 406.058C272.147 404.29 272.351 403.062 270.617 400.167C269.432 397.938 268.616 395.539 268.2 393.059C268.017 392.21 267.833 391.402 267.629 390.663C266.507 386.669 268.272 382.886 272.229 380.849C273.81 380.03 275.411 379.341 276.961 378.672C277.787 378.313 278.624 377.944 279.45 377.564C280.857 374.21 282.234 370.795 283.529 367.481C281.079 366.248 278.696 364.892 276.39 363.417C273.881 361.77 270.485 359.095 270.016 355.031C269.679 352.036 270.964 349.091 273.963 345.966C277.953 341.963 282.169 338.18 286.589 334.635C288.221 333.277 289.853 331.919 291.454 330.531C289.791 328.572 288.907 326.09 288.965 323.543C289.2 319.939 291.801 317.293 294.31 315.176C297.88 312.302 301.664 309.692 305.631 307.369C307.497 306.211 309.435 305.023 311.24 303.805C312.58 302.933 313.806 301.903 314.891 300.74C316.564 298.883 318.186 296.856 319.746 294.9C318.78 293.639 317.921 292.303 317.176 290.906C316.36 289.423 315.894 287.78 315.811 286.097C315.728 284.415 316.031 282.735 316.697 281.182C317.388 279.708 318.409 278.405 319.683 277.368C320.958 276.331 322.453 275.588 324.06 275.192C326.906 274.393 324.06 275.192 332.566 273.624C332.045 272.464 331.784 271.208 331.802 269.941C331.802 266.746 333.678 263.741 337.258 261.025C341.644 257.711 346.356 254.835 350.904 252.04C352.567 251.041 354.219 250.043 355.851 248.995C357.483 247.947 359.196 246.998 360.818 246C360.352 244.176 360.156 242.297 360.237 240.419C360.869 232.202 367.376 226.691 376.739 226.382C377.993 226.382 379.237 226.382 380.492 226.382C384.633 226.382 388.651 226.572 392.976 226.771C394.526 226.841 396.097 226.921 397.677 226.981C398.805 225.384 400.324 224.091 402.096 223.219C403.867 222.347 405.834 221.924 407.815 221.989C409.665 222.021 411.504 222.272 413.292 222.738C414.139 221.283 415.372 220.078 416.86 219.252C418.348 218.426 420.037 218.01 421.747 218.046C423.027 218.061 424.303 218.208 425.551 218.485C430.344 219.48 435.042 220.869 439.596 222.638C440.025 222.819 440.485 222.917 440.952 222.928C441.582 222.899 442.205 222.778 442.798 222.568C444.552 222.029 446.303 221.48 448.051 220.921C453.84 218.949 459.75 217.335 465.746 216.089C468.943 215.495 472.191 215.198 475.445 215.2C480.498 215.213 485.526 215.885 490.397 217.197C492.111 217.645 493.763 218.299 495.313 219.144C499.393 221.37 500.678 224.136 501.025 226.132C501.408 228.565 500.804 231.048 499.342 233.051L501.004 233.75C506.216 235.926 511.601 238.183 516.762 240.738C529.317 246.998 538.374 253.717 545.248 261.904C546.663 263.582 547.965 265.35 549.144 267.195C552.591 272.586 552.204 277.179 547.95 281.172L549.236 283.069C552.01 287.182 554.886 291.435 557.456 295.808C558.636 297.991 559.524 300.313 560.098 302.717C560.393 303.765 560.679 304.714 561.005 305.712C561.092 305.972 561.212 306.22 561.362 306.451C564.422 309.346 567.298 311.982 570.154 314.438C576.549 320.028 578.813 327.416 576.875 336.282C576.922 336.411 576.983 336.535 577.059 336.651C579.027 339.027 581.138 341.403 583.178 343.71C584.769 345.517 586.36 347.324 587.921 349.161C589.196 350.733 590.342 352.402 591.348 354.153C593.408 357.467 595.274 361.361 594.132 365.514Z" fill="black"/>
<path d="M347.204 786.33L320.526 779.599L343.228 693.376L371.088 700.405C379.475 702.521 386.196 706.057 391.254 711.015C396.318 715.944 399.594 722.024 401.082 729.253C402.577 736.455 402.15 744.519 399.8 753.444C397.435 762.426 393.795 769.753 388.88 775.428C383.972 781.074 377.992 784.863 370.941 786.796C363.897 788.7 355.985 788.545 347.204 786.33ZM333.433 772.978L348.968 776.897C356.116 778.7 362.402 778.82 367.826 777.255C373.25 775.69 377.784 772.658 381.429 768.16C385.075 763.662 387.821 757.905 389.669 750.888C391.501 743.927 391.939 737.647 390.983 732.048C390.033 726.421 387.648 721.689 383.826 717.851C380.012 713.986 374.728 711.201 367.974 709.497L351.258 705.279L333.433 772.978Z" fill="#1D1D1B"/>
<path d="M320.526 779.599L319.124 779.245L318.756 780.643L320.158 780.997L320.526 779.599ZM343.228 693.376L343.596 691.978L342.194 691.624L341.826 693.022L343.228 693.376ZM391.254 711.015L390.232 712.047L390.235 712.05L391.254 711.015ZM401.082 729.253L399.662 729.555L399.663 729.557L401.082 729.253ZM388.88 775.428L389.972 776.365L389.974 776.363L388.88 775.428ZM370.941 786.796L371.309 788.187L371.314 788.186L370.941 786.796ZM333.433 772.978L332.032 772.624L331.664 774.022L333.065 774.376L333.433 772.978ZM367.826 777.255L367.434 775.87L367.826 777.255ZM390.983 732.048L389.553 732.3L389.554 732.302L390.983 732.048ZM383.826 717.851L382.788 718.866L382.792 718.871L383.826 717.851ZM351.258 705.279L351.626 703.881L350.224 703.528L349.856 704.926L351.258 705.279ZM347.573 784.932L320.894 778.201L320.158 780.997L346.836 787.728L347.573 784.932ZM321.927 779.952L344.629 693.73L341.826 693.022L319.124 779.245L321.927 779.952ZM342.86 694.774L370.72 701.803L371.456 699.007L343.596 691.978L342.86 694.774ZM370.72 701.803C378.913 703.87 385.391 707.301 390.232 712.047L392.275 709.983C387.002 704.813 380.037 701.172 371.456 699.007L370.72 701.803ZM390.235 712.05C395.086 716.772 398.229 722.592 399.662 729.555L402.502 728.952C400.959 721.456 397.55 715.117 392.272 709.98L390.235 712.05ZM399.663 729.557C401.103 736.495 400.705 744.328 398.398 753.09L401.201 753.798C403.594 744.709 404.051 736.416 402.501 728.95L399.663 729.557ZM398.398 753.09C396.076 761.908 392.524 769.022 387.786 774.492L389.974 776.363C395.066 770.485 398.794 762.943 401.201 753.798L398.398 753.09ZM387.787 774.49C383.064 779.923 377.333 783.551 370.568 785.406L371.314 788.186C378.651 786.175 384.879 782.224 389.972 776.365L387.787 774.49ZM370.573 785.404C363.823 787.229 356.17 787.101 347.573 784.932L346.836 787.728C355.799 789.989 363.971 790.171 371.309 788.187L370.573 785.404ZM333.065 774.376L348.6 778.295L349.336 775.499L333.801 771.58L333.065 774.376ZM348.6 778.295C355.921 780.142 362.48 780.295 368.218 778.639L367.434 775.87C362.324 777.344 356.31 777.259 349.336 775.499L348.6 778.295ZM368.218 778.639C373.938 776.989 378.726 773.784 382.554 769.059L380.305 767.261C376.843 771.533 372.562 774.39 367.434 775.87L368.218 778.639ZM382.554 769.059C386.359 764.365 389.183 758.408 391.07 751.242L388.267 750.534C386.459 757.402 383.791 762.96 380.305 767.261L382.554 769.059ZM391.07 751.242C392.942 744.133 393.41 737.641 392.411 731.794L389.554 732.302C390.468 737.654 390.061 743.722 388.267 750.534L391.07 751.242ZM392.412 731.797C391.416 725.895 388.901 720.89 384.86 716.832L382.792 718.871C386.394 722.488 388.65 726.947 389.553 732.3L392.412 731.797ZM384.865 716.836C380.823 712.739 375.282 709.85 368.342 708.099L367.606 710.895C374.175 712.552 379.202 715.232 382.788 718.866L384.865 716.836ZM368.342 708.099L351.626 703.881L350.89 706.677L367.606 710.895L368.342 708.099ZM349.856 704.926L332.032 772.624L334.835 773.331L352.66 705.633L349.856 704.926Z" fill="#1D1D1B"/>
<path d="M421.907 795.69L410.607 795.671L443.449 706.717L454.576 706.736L487.1 795.801L475.8 795.782L449.335 720.808L448.64 720.807L421.907 795.69ZM426.142 760.928L471.69 761.005L471.673 770.567L426.125 770.489L426.142 760.928Z" fill="#1D1D1B"/>
<path d="M421.907 795.69L421.905 797.133L422.924 797.135L423.267 796.175L421.907 795.69ZM410.607 795.671L409.254 795.171L408.538 797.11L410.605 797.114L410.607 795.671ZM443.449 706.717L443.452 705.273L442.445 705.272L442.096 706.217L443.449 706.717ZM454.576 706.736L455.931 706.24L455.586 705.294L454.578 705.292L454.576 706.736ZM487.1 795.801L487.098 797.245L489.165 797.248L488.456 795.306L487.1 795.801ZM475.8 795.782L474.439 796.263L474.779 797.223L475.798 797.225L475.8 795.782ZM449.335 720.808L450.696 720.328L450.357 719.367L449.338 719.365L449.335 720.808ZM448.64 720.807L448.642 719.364L447.623 719.362L447.281 720.322L448.64 720.807ZM426.142 760.928L426.144 759.484L424.701 759.482L424.699 760.925L426.142 760.928ZM471.69 761.005L473.133 761.008L473.136 759.565L471.692 759.562L471.69 761.005ZM471.673 770.567L471.67 772.01L473.113 772.013L473.116 770.57L471.673 770.567ZM426.125 770.489L424.682 770.487L424.679 771.93L426.122 771.932L426.125 770.489ZM421.91 794.247L410.61 794.228L410.605 797.114L421.905 797.133L421.91 794.247ZM411.961 796.17L444.803 707.216L442.096 706.217L409.254 795.171L411.961 796.17ZM443.447 708.16L454.573 708.179L454.578 705.292L443.452 705.273L443.447 708.16ZM453.22 707.231L485.745 796.296L488.456 795.306L455.931 706.24L453.22 707.231ZM487.103 794.358L475.803 794.339L475.798 797.225L487.098 797.245L487.103 794.358ZM477.161 795.302L450.696 720.328L447.974 721.289L474.439 796.263L477.161 795.302ZM449.338 719.365L448.642 719.364L448.637 722.25L449.333 722.251L449.338 719.365ZM447.281 720.322L420.548 795.205L423.267 796.175L449.999 721.292L447.281 720.322ZM426.139 762.371L471.687 762.449L471.692 759.562L426.144 759.484L426.139 762.371ZM470.247 761.003L470.23 770.565L473.116 770.57L473.133 761.008L470.247 761.003ZM471.675 769.124L426.127 769.046L426.122 771.932L471.67 772.01L471.675 769.124ZM427.568 770.492L427.585 760.93L424.699 760.925L424.682 770.487L427.568 770.492Z" fill="#1D1D1B"/>
<path d="M574.795 725.441C577.189 734.535 577.612 742.809 576.063 750.264C574.515 757.718 571.343 763.966 566.548 769.007C561.753 774.048 555.669 777.499 548.296 779.359C540.922 781.219 533.892 781.077 527.205 778.933C520.519 776.788 514.657 772.82 509.62 767.027C504.583 761.233 500.868 753.79 498.474 744.696C496.079 735.602 495.656 727.328 497.205 719.873C498.754 712.419 501.925 706.171 506.721 701.13C511.516 696.089 517.6 692.639 524.973 690.778C532.346 688.918 539.376 689.06 546.063 691.204C552.75 693.349 558.612 697.317 563.648 703.111C568.685 708.904 572.401 716.347 574.795 725.441ZM564.664 727.997C562.698 720.531 559.787 714.546 555.93 710.042C552.101 705.53 547.714 702.491 542.77 700.925C537.854 699.352 532.779 699.225 527.545 700.546C522.31 701.866 517.916 704.382 514.361 708.092C510.834 711.796 508.495 716.531 507.342 722.3C506.218 728.061 506.639 734.674 508.605 742.14C510.57 749.606 513.468 755.595 517.297 760.106C521.154 764.611 525.54 767.65 530.456 769.223C535.4 770.789 540.489 770.912 545.724 769.591C550.958 768.271 555.339 765.759 558.865 762.055C562.42 758.345 564.76 753.609 565.884 747.848C567.036 742.08 566.629 735.463 564.664 727.997Z" fill="#1D1D1B"/>
<path d="M576.063 750.264L574.644 749.96L574.644 749.96L576.063 750.264ZM566.548 769.007L567.605 770.003L567.605 770.003L566.548 769.007ZM527.205 778.933L526.772 780.305L526.772 780.305L527.205 778.933ZM509.62 767.027L510.712 766.089L510.712 766.089L509.62 767.027ZM497.205 719.873L495.786 719.569L497.205 719.873ZM546.063 691.204L546.496 689.832L546.496 689.832L546.063 691.204ZM563.648 703.111L562.556 704.048L562.556 704.048L563.648 703.111ZM555.93 710.042L554.826 710.966L554.83 710.971L555.93 710.042ZM542.77 700.925L542.338 702.297L542.342 702.299L542.77 700.925ZM514.361 708.092L513.308 707.092L513.305 707.095L514.361 708.092ZM507.342 722.3L505.921 722.006L505.92 722.012L507.342 722.3ZM517.297 760.106L516.193 761.031L516.197 761.036L517.297 760.106ZM530.456 769.223L530.024 770.595L530.028 770.597L530.456 769.223ZM558.865 762.055L557.812 761.056L557.809 761.059L558.865 762.055ZM565.884 747.848L564.462 747.555L564.461 747.561L565.884 747.848ZM573.393 725.795C575.744 734.722 576.138 742.766 574.644 749.96L577.483 750.568C579.086 742.852 578.635 734.348 576.197 725.087L573.393 725.795ZM574.644 749.96C573.144 757.179 570.086 763.18 565.491 768.011L567.605 770.003C572.6 764.752 575.885 758.257 577.483 750.568L574.644 749.96ZM565.491 768.011C560.899 772.839 555.061 776.161 547.927 777.961L548.664 780.757C556.276 778.836 562.607 775.257 567.605 770.003L565.491 768.011ZM547.927 777.961C540.794 779.761 534.043 779.614 527.639 777.561L526.772 780.305C533.742 782.54 541.051 782.677 548.664 780.757L547.927 777.961ZM527.639 777.561C521.231 775.506 515.59 771.699 510.712 766.089L508.528 767.964C513.723 773.94 519.806 778.071 526.772 780.305L527.639 777.561ZM510.712 766.089C505.852 760.499 502.226 753.269 499.875 744.342L497.072 745.05C499.51 754.31 503.314 761.968 508.528 767.964L510.712 766.089ZM499.875 744.342C497.525 735.415 497.13 727.371 498.624 720.178L495.786 719.569C494.183 727.285 494.634 735.789 497.072 745.05L499.875 744.342ZM498.624 720.178C500.124 712.958 503.182 706.957 507.777 702.126L505.664 700.134C500.669 705.385 497.383 711.88 495.786 719.569L498.624 720.178ZM507.777 702.126C512.37 697.299 518.207 693.976 525.341 692.176L524.605 689.38C516.992 691.301 510.662 694.88 505.664 700.134L507.777 702.126ZM525.341 692.176C532.475 690.377 539.226 690.523 545.63 692.577L546.496 689.832C539.527 687.597 532.218 687.46 524.605 689.38L525.341 692.176ZM545.63 692.577C552.038 694.631 557.678 698.438 562.556 704.048L564.741 702.173C559.545 696.197 553.462 692.066 546.496 689.832L545.63 692.577ZM562.556 704.048C567.416 709.638 571.043 716.868 573.393 725.795L576.197 725.087C573.758 715.827 569.954 708.169 564.741 702.173L562.556 704.048ZM566.065 727.643C564.06 720.028 561.066 713.827 557.029 709.112L554.83 710.971C558.507 715.265 561.336 721.034 563.262 728.351L566.065 727.643ZM557.033 709.117C553.052 704.426 548.441 701.212 543.199 699.551L542.342 702.299C546.987 703.77 551.149 706.634 554.826 710.966L557.033 709.117ZM543.203 699.553C538.013 697.892 532.66 697.764 527.177 699.148L527.913 701.944C532.898 700.686 537.695 700.811 542.338 702.297L543.203 699.553ZM527.177 699.148C521.693 700.531 517.057 703.179 513.308 707.092L515.414 709.092C518.774 705.585 522.928 703.201 527.913 701.944L527.177 699.148ZM513.305 707.095C509.566 711.022 507.118 716.014 505.921 722.006L508.764 722.593C509.871 717.049 512.103 712.569 515.417 709.089L513.305 707.095ZM505.92 722.012C504.743 728.041 505.199 734.88 507.203 742.494L510.006 741.786C508.08 734.468 507.693 728.081 508.765 722.587L505.92 722.012ZM507.203 742.494C509.208 750.107 512.187 756.31 516.193 761.031L518.4 759.182C514.749 754.879 511.933 749.105 510.006 741.786L507.203 742.494ZM516.197 761.036C520.204 765.715 524.812 768.927 530.024 770.595L530.888 767.85C526.269 766.372 522.103 763.506 518.396 759.177L516.197 761.036ZM530.028 770.597C535.243 772.249 540.608 772.373 546.092 770.989L545.356 768.193C540.371 769.451 535.558 769.33 530.884 767.849L530.028 770.597ZM546.092 770.989C551.576 769.606 556.199 766.961 559.922 763.052L557.809 761.059C554.479 764.556 550.341 766.936 545.356 768.193L546.092 770.989ZM559.919 763.055C563.688 759.121 566.138 754.126 567.307 748.135L564.461 747.561C563.382 753.093 561.152 757.569 557.812 761.056L559.919 763.055ZM567.305 748.142C568.511 742.104 568.07 735.259 566.065 727.643L563.262 728.351C565.188 735.667 565.561 742.056 564.462 747.555L567.305 748.142Z" fill="#1D1D1B"/>
</svg>
